%TF.GenerationSoftware,KiCad,Pcbnew,9.0.4*%
%TF.CreationDate,2026-02-15T00:10:35+01:00*%
%TF.ProjectId,SCA_board,5343415f-626f-4617-9264-2e6b69636164,0.1*%
%TF.SameCoordinates,Original*%
%TF.FileFunction,Soldermask,Top*%
%TF.FilePolarity,Negative*%
%FSLAX46Y46*%
G04 Gerber Fmt 4.6, Leading zero omitted, Abs format (unit mm)*
G04 Created by KiCad (PCBNEW 9.0.4) date 2026-02-15 00:10:35*
%MOMM*%
%LPD*%
G01*
G04 APERTURE LIST*
G04 Aperture macros list*
%AMRoundRect*
0 Rectangle with rounded corners*
0 $1 Rounding radius*
0 $2 $3 $4 $5 $6 $7 $8 $9 X,Y pos of 4 corners*
0 Add a 4 corners polygon primitive as box body*
4,1,4,$2,$3,$4,$5,$6,$7,$8,$9,$2,$3,0*
0 Add four circle primitives for the rounded corners*
1,1,$1+$1,$2,$3*
1,1,$1+$1,$4,$5*
1,1,$1+$1,$6,$7*
1,1,$1+$1,$8,$9*
0 Add four rect primitives between the rounded corners*
20,1,$1+$1,$2,$3,$4,$5,0*
20,1,$1+$1,$4,$5,$6,$7,0*
20,1,$1+$1,$6,$7,$8,$9,0*
20,1,$1+$1,$8,$9,$2,$3,0*%
G04 Aperture macros list end*
%ADD10C,1.000000*%
%ADD11R,1.400000X1.400000*%
%ADD12C,1.400000*%
%ADD13C,2.400000*%
%ADD14RoundRect,0.237500X0.237500X-0.250000X0.237500X0.250000X-0.237500X0.250000X-0.237500X-0.250000X0*%
%ADD15RoundRect,0.150000X0.825000X0.150000X-0.825000X0.150000X-0.825000X-0.150000X0.825000X-0.150000X0*%
%ADD16R,1.500000X1.000000*%
%ADD17RoundRect,0.237500X0.300000X0.237500X-0.300000X0.237500X-0.300000X-0.237500X0.300000X-0.237500X0*%
%ADD18RoundRect,0.087500X0.725000X0.087500X-0.725000X0.087500X-0.725000X-0.087500X0.725000X-0.087500X0*%
%ADD19RoundRect,0.237500X-0.237500X0.250000X-0.237500X-0.250000X0.237500X-0.250000X0.237500X0.250000X0*%
%ADD20RoundRect,0.237500X-0.237500X0.300000X-0.237500X-0.300000X0.237500X-0.300000X0.237500X0.300000X0*%
%ADD21RoundRect,0.237500X0.237500X-0.300000X0.237500X0.300000X-0.237500X0.300000X-0.237500X-0.300000X0*%
%ADD22C,4.700000*%
%ADD23RoundRect,0.250000X-0.412500X-0.650000X0.412500X-0.650000X0.412500X0.650000X-0.412500X0.650000X0*%
%ADD24RoundRect,0.249999X-0.525001X-0.525001X0.525001X-0.525001X0.525001X0.525001X-0.525001X0.525001X0*%
%ADD25C,1.550000*%
%ADD26RoundRect,0.162500X0.162500X-0.617500X0.162500X0.617500X-0.162500X0.617500X-0.162500X-0.617500X0*%
%ADD27RoundRect,0.237500X-0.250000X-0.237500X0.250000X-0.237500X0.250000X0.237500X-0.250000X0.237500X0*%
%ADD28RoundRect,0.160000X0.160000X-0.197500X0.160000X0.197500X-0.160000X0.197500X-0.160000X-0.197500X0*%
%ADD29C,1.875000*%
%ADD30RoundRect,0.250001X-1.399999X1.099999X-1.399999X-1.099999X1.399999X-1.099999X1.399999X1.099999X0*%
%ADD31O,3.300000X2.700000*%
%ADD32RoundRect,0.250000X0.650000X1.550000X-0.650000X1.550000X-0.650000X-1.550000X0.650000X-1.550000X0*%
%ADD33O,1.800000X3.600000*%
G04 APERTURE END LIST*
%TO.C,JP1*%
G36*
X144350000Y-73700000D02*
G01*
X142850000Y-73700000D01*
X142850000Y-75300000D01*
X144350000Y-75300000D01*
X144350000Y-73700000D01*
G37*
%TD*%
D10*
%TO.C,TP11*%
X141000000Y-64700000D03*
%TD*%
%TO.C,TP10*%
X144400000Y-84100000D03*
%TD*%
%TO.C,TP9*%
X151900000Y-84100000D03*
%TD*%
%TO.C,TP8*%
X152000000Y-102100000D03*
%TD*%
%TO.C,TP7*%
X152000000Y-100100000D03*
%TD*%
%TO.C,TP6*%
X142100000Y-103000000D03*
%TD*%
%TO.C,TP5*%
X140500000Y-101600000D03*
%TD*%
%TO.C,TP4*%
X141000000Y-67700000D03*
%TD*%
%TO.C,TP3*%
X146600000Y-117000000D03*
%TD*%
%TO.C,TP2*%
X141200000Y-73600000D03*
%TD*%
%TO.C,TP1*%
X142500000Y-70500000D03*
%TD*%
D11*
%TO.C,J1*%
X145179395Y-131162483D03*
D12*
X142639395Y-132432483D03*
X145179395Y-133702483D03*
X142639395Y-134972483D03*
X145179395Y-136242483D03*
X142639395Y-137512483D03*
X145179395Y-138782483D03*
X142639395Y-140052483D03*
D13*
X148589395Y-127732483D03*
X148589395Y-143482483D03*
%TD*%
D14*
%TO.C,R10*%
X146900000Y-66787500D03*
X146900000Y-68612500D03*
%TD*%
D15*
%TO.C,U3*%
X151475000Y-74005000D03*
X151475000Y-72735000D03*
X151475000Y-71465000D03*
X151475000Y-70195000D03*
X146525000Y-70195000D03*
X146525000Y-71465000D03*
X146525000Y-72735000D03*
X146525000Y-74005000D03*
%TD*%
D14*
%TO.C,R11*%
X144500000Y-71412500D03*
X144500000Y-69587500D03*
%TD*%
D16*
%TO.C,JP1*%
X143600000Y-73200000D03*
X143600000Y-74500000D03*
X143600000Y-75800000D03*
%TD*%
D17*
%TO.C,C16*%
X148262500Y-75600000D03*
X146537500Y-75600000D03*
%TD*%
D18*
%TO.C,U2*%
X148551895Y-102607483D03*
X148551895Y-102107483D03*
X148551895Y-101607483D03*
X148551895Y-101107483D03*
X148551895Y-100607483D03*
X144326895Y-100607483D03*
X144326895Y-101107483D03*
X144326895Y-101607483D03*
X144326895Y-102107483D03*
X144326895Y-102607483D03*
%TD*%
D19*
%TO.C,R2*%
X144339395Y-140794983D03*
X144339395Y-142619983D03*
%TD*%
D20*
%TO.C,C8*%
X142139395Y-98637500D03*
X142139395Y-100362500D03*
%TD*%
D21*
%TO.C,C9*%
X143939395Y-105569983D03*
X143939395Y-103844983D03*
%TD*%
D19*
%TO.C,R6*%
X148439395Y-137994983D03*
X148439395Y-139819983D03*
%TD*%
D22*
%TO.C,H4*%
X148649395Y-158057483D03*
%TD*%
D23*
%TO.C,C4*%
X150376895Y-68007483D03*
X153501895Y-68007483D03*
%TD*%
D24*
%TO.C,J3*%
X131126895Y-57437483D03*
D25*
X131126895Y-59977483D03*
X131126895Y-62517483D03*
X131126895Y-65057483D03*
X131126895Y-67597483D03*
X131126895Y-70137483D03*
X131126895Y-72677483D03*
X131126895Y-75217483D03*
X131126895Y-77757483D03*
X131126895Y-80297483D03*
X131126895Y-82837483D03*
X131126895Y-85377483D03*
X131126895Y-87917483D03*
X131126895Y-90457483D03*
X131126895Y-92997483D03*
X131126895Y-95537483D03*
X131126895Y-98077483D03*
X131126895Y-100617483D03*
X131126895Y-103157483D03*
X131126895Y-105697483D03*
X131126895Y-108237483D03*
X131126895Y-110777483D03*
X131126895Y-113317483D03*
X131126895Y-115857483D03*
X131126895Y-118397483D03*
X131126895Y-120937483D03*
X131126895Y-123477483D03*
X131126895Y-126017483D03*
X131126895Y-128557483D03*
X131126895Y-131097483D03*
X131126895Y-133637483D03*
X131126895Y-136177483D03*
X136206895Y-57437483D03*
X136206895Y-59977483D03*
X136206895Y-62517483D03*
X136206895Y-65057483D03*
X136206895Y-67597483D03*
X136206895Y-70137483D03*
X136206895Y-72677483D03*
X136206895Y-75217483D03*
X136206895Y-77757483D03*
X136206895Y-80297483D03*
X136206895Y-82837483D03*
X136206895Y-85377483D03*
X136206895Y-87917483D03*
X136206895Y-90457483D03*
X136206895Y-92997483D03*
X136206895Y-95537483D03*
X136206895Y-98077483D03*
X136206895Y-100617483D03*
X136206895Y-103157483D03*
X136206895Y-105697483D03*
X136206895Y-108237483D03*
X136206895Y-110777483D03*
X136206895Y-113317483D03*
X136206895Y-115857483D03*
X136206895Y-118397483D03*
X136206895Y-120937483D03*
X136206895Y-123477483D03*
X136206895Y-126017483D03*
X136206895Y-128557483D03*
X136206895Y-131097483D03*
X136206895Y-133637483D03*
X136206895Y-136177483D03*
%TD*%
D26*
%TO.C,U1*%
X148589395Y-109957483D03*
X149539395Y-109957483D03*
X150489395Y-109957483D03*
X150489395Y-107257483D03*
X149539395Y-107257483D03*
X148589395Y-107257483D03*
%TD*%
D22*
%TO.C,H3*%
X148649395Y-35557483D03*
%TD*%
D19*
%TO.C,R1*%
X142839395Y-141694983D03*
X142839395Y-143519983D03*
%TD*%
D27*
%TO.C,R3*%
X146926895Y-135007483D03*
X148751895Y-135007483D03*
%TD*%
D22*
%TO.C,H2*%
X133409395Y-158057483D03*
%TD*%
%TO.C,H1*%
X133409395Y-35557483D03*
%TD*%
D27*
%TO.C,R5*%
X141826895Y-145507483D03*
X143651895Y-145507483D03*
%TD*%
D23*
%TO.C,C1*%
X145376895Y-145907483D03*
X148501895Y-145907483D03*
%TD*%
D28*
%TO.C,R7*%
X148539395Y-105604983D03*
X148539395Y-104409983D03*
%TD*%
%TO.C,R8*%
X150539395Y-105604983D03*
X150539395Y-104409983D03*
%TD*%
D27*
%TO.C,R4*%
X146926895Y-136507483D03*
X148751895Y-136507483D03*
%TD*%
D29*
%TO.C,J6*%
X153554395Y-122257483D03*
X153554395Y-114257483D03*
X150694395Y-122257483D03*
X150694395Y-114257483D03*
%TD*%
D30*
%TO.C,J2*%
X144989395Y-52107483D03*
D31*
X144989395Y-56307483D03*
X144989395Y-60507483D03*
X144989395Y-64707483D03*
X150489395Y-52107483D03*
X150489395Y-56307483D03*
X150489395Y-60507483D03*
X150489395Y-64707483D03*
%TD*%
D32*
%TO.C,J7*%
X151949395Y-81007483D03*
D33*
X148139395Y-81007483D03*
X144329395Y-81007483D03*
%TD*%
D29*
%TO.C,J4*%
X144784395Y-122257483D03*
X144784395Y-114257483D03*
X141924395Y-122257483D03*
X141924395Y-114257483D03*
%TD*%
M02*
