%TF.GenerationSoftware,KiCad,Pcbnew,9.0.4*%
%TF.CreationDate,2026-02-15T00:10:35+01:00*%
%TF.ProjectId,SCA_board,5343415f-626f-4617-9264-2e6b69636164,0.1*%
%TF.SameCoordinates,Original*%
%TF.FileFunction,Legend,Bot*%
%TF.FilePolarity,Positive*%
%FSLAX46Y46*%
G04 Gerber Fmt 4.6, Leading zero omitted, Abs format (unit mm)*
G04 Created by KiCad (PCBNEW 9.0.4) date 2026-02-15 00:10:35*
%MOMM*%
%LPD*%
G01*
G04 APERTURE LIST*
G04 Aperture macros list*
%AMRoundRect*
0 Rectangle with rounded corners*
0 $1 Rounding radius*
0 $2 $3 $4 $5 $6 $7 $8 $9 X,Y pos of 4 corners*
0 Add a 4 corners polygon primitive as box body*
4,1,4,$2,$3,$4,$5,$6,$7,$8,$9,$2,$3,0*
0 Add four circle primitives for the rounded corners*
1,1,$1+$1,$2,$3*
1,1,$1+$1,$4,$5*
1,1,$1+$1,$6,$7*
1,1,$1+$1,$8,$9*
0 Add four rect primitives between the rounded corners*
20,1,$1+$1,$2,$3,$4,$5,0*
20,1,$1+$1,$4,$5,$6,$7,0*
20,1,$1+$1,$6,$7,$8,$9,0*
20,1,$1+$1,$8,$9,$2,$3,0*%
G04 Aperture macros list end*
%ADD10C,0.300000*%
%ADD11C,0.200000*%
%ADD12C,0.400000*%
%ADD13C,0.254000*%
%ADD14C,0.150000*%
%ADD15C,0.100000*%
%ADD16C,0.120000*%
%ADD17C,3.250000*%
%ADD18R,1.400000X1.400000*%
%ADD19C,1.400000*%
%ADD20C,2.400000*%
%ADD21C,4.700000*%
%ADD22C,2.850000*%
%ADD23RoundRect,0.249999X-0.525001X-0.525001X0.525001X-0.525001X0.525001X0.525001X-0.525001X0.525001X0*%
%ADD24C,1.550000*%
%ADD25C,0.660000*%
%ADD26C,1.080000*%
%ADD27R,1.150000X0.300000*%
%ADD28C,1.875000*%
%ADD29RoundRect,0.237500X0.287500X0.237500X-0.287500X0.237500X-0.287500X-0.237500X0.287500X-0.237500X0*%
%ADD30RoundRect,0.250001X-1.399999X1.099999X-1.399999X-1.099999X1.399999X-1.099999X1.399999X1.099999X0*%
%ADD31O,3.300000X2.700000*%
%ADD32RoundRect,0.250000X0.650000X1.550000X-0.650000X1.550000X-0.650000X-1.550000X0.650000X-1.550000X0*%
%ADD33O,1.800000X3.600000*%
%ADD34RoundRect,0.250000X0.350000X0.450000X-0.350000X0.450000X-0.350000X-0.450000X0.350000X-0.450000X0*%
G04 APERTURE END LIST*
D10*
X149578822Y-84934876D02*
X149769298Y-84839638D01*
X149769298Y-84839638D02*
X150055012Y-84839638D01*
X150055012Y-84839638D02*
X150340727Y-84934876D01*
X150340727Y-84934876D02*
X150531203Y-85125352D01*
X150531203Y-85125352D02*
X150626441Y-85315828D01*
X150626441Y-85315828D02*
X150721679Y-85696780D01*
X150721679Y-85696780D02*
X150721679Y-85982495D01*
X150721679Y-85982495D02*
X150626441Y-86363447D01*
X150626441Y-86363447D02*
X150531203Y-86553923D01*
X150531203Y-86553923D02*
X150340727Y-86744400D01*
X150340727Y-86744400D02*
X150055012Y-86839638D01*
X150055012Y-86839638D02*
X149864536Y-86839638D01*
X149864536Y-86839638D02*
X149578822Y-86744400D01*
X149578822Y-86744400D02*
X149483584Y-86649161D01*
X149483584Y-86649161D02*
X149483584Y-85982495D01*
X149483584Y-85982495D02*
X149864536Y-85982495D01*
X148626441Y-86839638D02*
X148626441Y-84839638D01*
X148626441Y-84839638D02*
X147483584Y-86839638D01*
X147483584Y-86839638D02*
X147483584Y-84839638D01*
X146531203Y-86839638D02*
X146531203Y-84839638D01*
X146531203Y-84839638D02*
X146055013Y-84839638D01*
X146055013Y-84839638D02*
X145769298Y-84934876D01*
X145769298Y-84934876D02*
X145578822Y-85125352D01*
X145578822Y-85125352D02*
X145483584Y-85315828D01*
X145483584Y-85315828D02*
X145388346Y-85696780D01*
X145388346Y-85696780D02*
X145388346Y-85982495D01*
X145388346Y-85982495D02*
X145483584Y-86363447D01*
X145483584Y-86363447D02*
X145578822Y-86553923D01*
X145578822Y-86553923D02*
X145769298Y-86744400D01*
X145769298Y-86744400D02*
X146055013Y-86839638D01*
X146055013Y-86839638D02*
X146531203Y-86839638D01*
X153321679Y-86168209D02*
X152369298Y-86168209D01*
X153512155Y-86739638D02*
X152845489Y-84739638D01*
X152845489Y-84739638D02*
X152178822Y-86739638D01*
X151232979Y-75997121D02*
X151899646Y-75044740D01*
X152375836Y-75997121D02*
X152375836Y-73997121D01*
X152375836Y-73997121D02*
X151613931Y-73997121D01*
X151613931Y-73997121D02*
X151423455Y-74092359D01*
X151423455Y-74092359D02*
X151328217Y-74187597D01*
X151328217Y-74187597D02*
X151232979Y-74378073D01*
X151232979Y-74378073D02*
X151232979Y-74663787D01*
X151232979Y-74663787D02*
X151328217Y-74854263D01*
X151328217Y-74854263D02*
X151423455Y-74949502D01*
X151423455Y-74949502D02*
X151613931Y-75044740D01*
X151613931Y-75044740D02*
X152375836Y-75044740D01*
X150471074Y-75901883D02*
X150185360Y-75997121D01*
X150185360Y-75997121D02*
X149709169Y-75997121D01*
X149709169Y-75997121D02*
X149518693Y-75901883D01*
X149518693Y-75901883D02*
X149423455Y-75806644D01*
X149423455Y-75806644D02*
X149328217Y-75616168D01*
X149328217Y-75616168D02*
X149328217Y-75425692D01*
X149328217Y-75425692D02*
X149423455Y-75235216D01*
X149423455Y-75235216D02*
X149518693Y-75139978D01*
X149518693Y-75139978D02*
X149709169Y-75044740D01*
X149709169Y-75044740D02*
X150090122Y-74949502D01*
X150090122Y-74949502D02*
X150280598Y-74854263D01*
X150280598Y-74854263D02*
X150375836Y-74759025D01*
X150375836Y-74759025D02*
X150471074Y-74568549D01*
X150471074Y-74568549D02*
X150471074Y-74378073D01*
X150471074Y-74378073D02*
X150375836Y-74187597D01*
X150375836Y-74187597D02*
X150280598Y-74092359D01*
X150280598Y-74092359D02*
X150090122Y-73997121D01*
X150090122Y-73997121D02*
X149613931Y-73997121D01*
X149613931Y-73997121D02*
X149328217Y-74092359D01*
X147613931Y-74663787D02*
X147613931Y-75997121D01*
X148090122Y-73901883D02*
X148566312Y-75330454D01*
X148566312Y-75330454D02*
X147328217Y-75330454D01*
X146280598Y-74854263D02*
X146471074Y-74759025D01*
X146471074Y-74759025D02*
X146566312Y-74663787D01*
X146566312Y-74663787D02*
X146661550Y-74473311D01*
X146661550Y-74473311D02*
X146661550Y-74378073D01*
X146661550Y-74378073D02*
X146566312Y-74187597D01*
X146566312Y-74187597D02*
X146471074Y-74092359D01*
X146471074Y-74092359D02*
X146280598Y-73997121D01*
X146280598Y-73997121D02*
X145899645Y-73997121D01*
X145899645Y-73997121D02*
X145709169Y-74092359D01*
X145709169Y-74092359D02*
X145613931Y-74187597D01*
X145613931Y-74187597D02*
X145518693Y-74378073D01*
X145518693Y-74378073D02*
X145518693Y-74473311D01*
X145518693Y-74473311D02*
X145613931Y-74663787D01*
X145613931Y-74663787D02*
X145709169Y-74759025D01*
X145709169Y-74759025D02*
X145899645Y-74854263D01*
X145899645Y-74854263D02*
X146280598Y-74854263D01*
X146280598Y-74854263D02*
X146471074Y-74949502D01*
X146471074Y-74949502D02*
X146566312Y-75044740D01*
X146566312Y-75044740D02*
X146661550Y-75235216D01*
X146661550Y-75235216D02*
X146661550Y-75616168D01*
X146661550Y-75616168D02*
X146566312Y-75806644D01*
X146566312Y-75806644D02*
X146471074Y-75901883D01*
X146471074Y-75901883D02*
X146280598Y-75997121D01*
X146280598Y-75997121D02*
X145899645Y-75997121D01*
X145899645Y-75997121D02*
X145709169Y-75901883D01*
X145709169Y-75901883D02*
X145613931Y-75806644D01*
X145613931Y-75806644D02*
X145518693Y-75616168D01*
X145518693Y-75616168D02*
X145518693Y-75235216D01*
X145518693Y-75235216D02*
X145613931Y-75044740D01*
X145613931Y-75044740D02*
X145709169Y-74949502D01*
X145709169Y-74949502D02*
X145899645Y-74854263D01*
X143709169Y-73997121D02*
X144661550Y-73997121D01*
X144661550Y-73997121D02*
X144756788Y-74949502D01*
X144756788Y-74949502D02*
X144661550Y-74854263D01*
X144661550Y-74854263D02*
X144471074Y-74759025D01*
X144471074Y-74759025D02*
X143994883Y-74759025D01*
X143994883Y-74759025D02*
X143804407Y-74854263D01*
X143804407Y-74854263D02*
X143709169Y-74949502D01*
X143709169Y-74949502D02*
X143613931Y-75139978D01*
X143613931Y-75139978D02*
X143613931Y-75616168D01*
X143613931Y-75616168D02*
X143709169Y-75806644D01*
X143709169Y-75806644D02*
X143804407Y-75901883D01*
X143804407Y-75901883D02*
X143994883Y-75997121D01*
X143994883Y-75997121D02*
X144471074Y-75997121D01*
X144471074Y-75997121D02*
X144661550Y-75901883D01*
X144661550Y-75901883D02*
X144756788Y-75806644D01*
D11*
X150969721Y-94764758D02*
X150969721Y-95574281D01*
X150969721Y-95574281D02*
X150922102Y-95669519D01*
X150922102Y-95669519D02*
X150874483Y-95717139D01*
X150874483Y-95717139D02*
X150779245Y-95764758D01*
X150779245Y-95764758D02*
X150588769Y-95764758D01*
X150588769Y-95764758D02*
X150493531Y-95717139D01*
X150493531Y-95717139D02*
X150445912Y-95669519D01*
X150445912Y-95669519D02*
X150398293Y-95574281D01*
X150398293Y-95574281D02*
X150398293Y-94764758D01*
X149969721Y-95717139D02*
X149826864Y-95764758D01*
X149826864Y-95764758D02*
X149588769Y-95764758D01*
X149588769Y-95764758D02*
X149493531Y-95717139D01*
X149493531Y-95717139D02*
X149445912Y-95669519D01*
X149445912Y-95669519D02*
X149398293Y-95574281D01*
X149398293Y-95574281D02*
X149398293Y-95479043D01*
X149398293Y-95479043D02*
X149445912Y-95383805D01*
X149445912Y-95383805D02*
X149493531Y-95336186D01*
X149493531Y-95336186D02*
X149588769Y-95288567D01*
X149588769Y-95288567D02*
X149779245Y-95240948D01*
X149779245Y-95240948D02*
X149874483Y-95193329D01*
X149874483Y-95193329D02*
X149922102Y-95145710D01*
X149922102Y-95145710D02*
X149969721Y-95050472D01*
X149969721Y-95050472D02*
X149969721Y-94955234D01*
X149969721Y-94955234D02*
X149922102Y-94859996D01*
X149922102Y-94859996D02*
X149874483Y-94812377D01*
X149874483Y-94812377D02*
X149779245Y-94764758D01*
X149779245Y-94764758D02*
X149541150Y-94764758D01*
X149541150Y-94764758D02*
X149398293Y-94812377D01*
X148636388Y-95240948D02*
X148493531Y-95288567D01*
X148493531Y-95288567D02*
X148445912Y-95336186D01*
X148445912Y-95336186D02*
X148398293Y-95431424D01*
X148398293Y-95431424D02*
X148398293Y-95574281D01*
X148398293Y-95574281D02*
X148445912Y-95669519D01*
X148445912Y-95669519D02*
X148493531Y-95717139D01*
X148493531Y-95717139D02*
X148588769Y-95764758D01*
X148588769Y-95764758D02*
X148969721Y-95764758D01*
X148969721Y-95764758D02*
X148969721Y-94764758D01*
X148969721Y-94764758D02*
X148636388Y-94764758D01*
X148636388Y-94764758D02*
X148541150Y-94812377D01*
X148541150Y-94812377D02*
X148493531Y-94859996D01*
X148493531Y-94859996D02*
X148445912Y-94955234D01*
X148445912Y-94955234D02*
X148445912Y-95050472D01*
X148445912Y-95050472D02*
X148493531Y-95145710D01*
X148493531Y-95145710D02*
X148541150Y-95193329D01*
X148541150Y-95193329D02*
X148636388Y-95240948D01*
X148636388Y-95240948D02*
X148969721Y-95240948D01*
X147255436Y-94717139D02*
X148112578Y-96002853D01*
X146922102Y-94764758D02*
X146922102Y-95574281D01*
X146922102Y-95574281D02*
X146874483Y-95669519D01*
X146874483Y-95669519D02*
X146826864Y-95717139D01*
X146826864Y-95717139D02*
X146731626Y-95764758D01*
X146731626Y-95764758D02*
X146541150Y-95764758D01*
X146541150Y-95764758D02*
X146445912Y-95717139D01*
X146445912Y-95717139D02*
X146398293Y-95669519D01*
X146398293Y-95669519D02*
X146350674Y-95574281D01*
X146350674Y-95574281D02*
X146350674Y-94764758D01*
X145922102Y-95479043D02*
X145445912Y-95479043D01*
X146017340Y-95764758D02*
X145684007Y-94764758D01*
X145684007Y-94764758D02*
X145350674Y-95764758D01*
X144445912Y-95764758D02*
X144779245Y-95288567D01*
X145017340Y-95764758D02*
X145017340Y-94764758D01*
X145017340Y-94764758D02*
X144636388Y-94764758D01*
X144636388Y-94764758D02*
X144541150Y-94812377D01*
X144541150Y-94812377D02*
X144493531Y-94859996D01*
X144493531Y-94859996D02*
X144445912Y-94955234D01*
X144445912Y-94955234D02*
X144445912Y-95098091D01*
X144445912Y-95098091D02*
X144493531Y-95193329D01*
X144493531Y-95193329D02*
X144541150Y-95240948D01*
X144541150Y-95240948D02*
X144636388Y-95288567D01*
X144636388Y-95288567D02*
X145017340Y-95288567D01*
X144160197Y-94764758D02*
X143588769Y-94764758D01*
X143874483Y-95764758D02*
X143874483Y-94764758D01*
X149493530Y-97088987D02*
X149017340Y-97088987D01*
X149588768Y-97374702D02*
X149255435Y-96374702D01*
X149255435Y-96374702D02*
X148922102Y-97374702D01*
X148017340Y-97279463D02*
X148064959Y-97327083D01*
X148064959Y-97327083D02*
X148207816Y-97374702D01*
X148207816Y-97374702D02*
X148303054Y-97374702D01*
X148303054Y-97374702D02*
X148445911Y-97327083D01*
X148445911Y-97327083D02*
X148541149Y-97231844D01*
X148541149Y-97231844D02*
X148588768Y-97136606D01*
X148588768Y-97136606D02*
X148636387Y-96946130D01*
X148636387Y-96946130D02*
X148636387Y-96803273D01*
X148636387Y-96803273D02*
X148588768Y-96612797D01*
X148588768Y-96612797D02*
X148541149Y-96517559D01*
X148541149Y-96517559D02*
X148445911Y-96422321D01*
X148445911Y-96422321D02*
X148303054Y-96374702D01*
X148303054Y-96374702D02*
X148207816Y-96374702D01*
X148207816Y-96374702D02*
X148064959Y-96422321D01*
X148064959Y-96422321D02*
X148017340Y-96469940D01*
X147731625Y-96374702D02*
X147160197Y-96374702D01*
X147445911Y-97374702D02*
X147445911Y-96374702D01*
D10*
X143259774Y-85699502D02*
X142974060Y-85794740D01*
X142974060Y-85794740D02*
X142878822Y-85889978D01*
X142878822Y-85889978D02*
X142783584Y-86080454D01*
X142783584Y-86080454D02*
X142783584Y-86366168D01*
X142783584Y-86366168D02*
X142878822Y-86556644D01*
X142878822Y-86556644D02*
X142974060Y-86651883D01*
X142974060Y-86651883D02*
X143164536Y-86747121D01*
X143164536Y-86747121D02*
X143926441Y-86747121D01*
X143926441Y-86747121D02*
X143926441Y-84747121D01*
X143926441Y-84747121D02*
X143259774Y-84747121D01*
X143259774Y-84747121D02*
X143069298Y-84842359D01*
X143069298Y-84842359D02*
X142974060Y-84937597D01*
X142974060Y-84937597D02*
X142878822Y-85128073D01*
X142878822Y-85128073D02*
X142878822Y-85318549D01*
X142878822Y-85318549D02*
X142974060Y-85509025D01*
X142974060Y-85509025D02*
X143069298Y-85604263D01*
X143069298Y-85604263D02*
X143259774Y-85699502D01*
X143259774Y-85699502D02*
X143926441Y-85699502D01*
X150265836Y-48247121D02*
X150265836Y-46247121D01*
X150265836Y-46247121D02*
X149503931Y-46247121D01*
X149503931Y-46247121D02*
X149313455Y-46342359D01*
X149313455Y-46342359D02*
X149218217Y-46437597D01*
X149218217Y-46437597D02*
X149122979Y-46628073D01*
X149122979Y-46628073D02*
X149122979Y-46913787D01*
X149122979Y-46913787D02*
X149218217Y-47104263D01*
X149218217Y-47104263D02*
X149313455Y-47199502D01*
X149313455Y-47199502D02*
X149503931Y-47294740D01*
X149503931Y-47294740D02*
X150265836Y-47294740D01*
X148456312Y-46247121D02*
X147980122Y-48247121D01*
X147980122Y-48247121D02*
X147599169Y-46818549D01*
X147599169Y-46818549D02*
X147218217Y-48247121D01*
X147218217Y-48247121D02*
X146742027Y-46247121D01*
X144837265Y-48247121D02*
X145503932Y-47294740D01*
X145980122Y-48247121D02*
X145980122Y-46247121D01*
X145980122Y-46247121D02*
X145218217Y-46247121D01*
X145218217Y-46247121D02*
X145027741Y-46342359D01*
X145027741Y-46342359D02*
X144932503Y-46437597D01*
X144932503Y-46437597D02*
X144837265Y-46628073D01*
X144837265Y-46628073D02*
X144837265Y-46913787D01*
X144837265Y-46913787D02*
X144932503Y-47104263D01*
X144932503Y-47104263D02*
X145027741Y-47199502D01*
X145027741Y-47199502D02*
X145218217Y-47294740D01*
X145218217Y-47294740D02*
X145980122Y-47294740D01*
D12*
X138926214Y-128746830D02*
X138926214Y-129413497D01*
X139973833Y-129699211D02*
X139973833Y-128746830D01*
X139973833Y-128746830D02*
X137973833Y-128746830D01*
X137973833Y-128746830D02*
X137973833Y-129699211D01*
X137973833Y-130270640D02*
X137973833Y-131413497D01*
X139973833Y-130842068D02*
X137973833Y-130842068D01*
X139973833Y-132080164D02*
X137973833Y-132080164D01*
X138926214Y-132080164D02*
X138926214Y-133223021D01*
X139973833Y-133223021D02*
X137973833Y-133223021D01*
X138926214Y-134175402D02*
X138926214Y-134842069D01*
X139973833Y-135127783D02*
X139973833Y-134175402D01*
X139973833Y-134175402D02*
X137973833Y-134175402D01*
X137973833Y-134175402D02*
X137973833Y-135127783D01*
X139973833Y-137127783D02*
X139021452Y-136461116D01*
X139973833Y-135984926D02*
X137973833Y-135984926D01*
X137973833Y-135984926D02*
X137973833Y-136746831D01*
X137973833Y-136746831D02*
X138069071Y-136937307D01*
X138069071Y-136937307D02*
X138164309Y-137032545D01*
X138164309Y-137032545D02*
X138354785Y-137127783D01*
X138354785Y-137127783D02*
X138640499Y-137127783D01*
X138640499Y-137127783D02*
X138830975Y-137032545D01*
X138830975Y-137032545D02*
X138926214Y-136937307D01*
X138926214Y-136937307D02*
X139021452Y-136746831D01*
X139021452Y-136746831D02*
X139021452Y-135984926D01*
X139973833Y-137984926D02*
X137973833Y-137984926D01*
X137973833Y-137984926D02*
X139973833Y-139127783D01*
X139973833Y-139127783D02*
X137973833Y-139127783D01*
X138926214Y-140080164D02*
X138926214Y-140746831D01*
X139973833Y-141032545D02*
X139973833Y-140080164D01*
X139973833Y-140080164D02*
X137973833Y-140080164D01*
X137973833Y-140080164D02*
X137973833Y-141032545D01*
X137973833Y-141603974D02*
X137973833Y-142746831D01*
X139973833Y-142175402D02*
X137973833Y-142175402D01*
D10*
X142579033Y-106581041D02*
X144198080Y-106581041D01*
X144198080Y-106581041D02*
X144388556Y-106676279D01*
X144388556Y-106676279D02*
X144483795Y-106771517D01*
X144483795Y-106771517D02*
X144579033Y-106961993D01*
X144579033Y-106961993D02*
X144579033Y-107342946D01*
X144579033Y-107342946D02*
X144483795Y-107533422D01*
X144483795Y-107533422D02*
X144388556Y-107628660D01*
X144388556Y-107628660D02*
X144198080Y-107723898D01*
X144198080Y-107723898D02*
X142579033Y-107723898D01*
X144483795Y-108581041D02*
X144579033Y-108866755D01*
X144579033Y-108866755D02*
X144579033Y-109342946D01*
X144579033Y-109342946D02*
X144483795Y-109533422D01*
X144483795Y-109533422D02*
X144388556Y-109628660D01*
X144388556Y-109628660D02*
X144198080Y-109723898D01*
X144198080Y-109723898D02*
X144007604Y-109723898D01*
X144007604Y-109723898D02*
X143817128Y-109628660D01*
X143817128Y-109628660D02*
X143721890Y-109533422D01*
X143721890Y-109533422D02*
X143626652Y-109342946D01*
X143626652Y-109342946D02*
X143531414Y-108961993D01*
X143531414Y-108961993D02*
X143436175Y-108771517D01*
X143436175Y-108771517D02*
X143340937Y-108676279D01*
X143340937Y-108676279D02*
X143150461Y-108581041D01*
X143150461Y-108581041D02*
X142959985Y-108581041D01*
X142959985Y-108581041D02*
X142769509Y-108676279D01*
X142769509Y-108676279D02*
X142674271Y-108771517D01*
X142674271Y-108771517D02*
X142579033Y-108961993D01*
X142579033Y-108961993D02*
X142579033Y-109438184D01*
X142579033Y-109438184D02*
X142674271Y-109723898D01*
X143531414Y-111247708D02*
X143626652Y-111533422D01*
X143626652Y-111533422D02*
X143721890Y-111628660D01*
X143721890Y-111628660D02*
X143912366Y-111723898D01*
X143912366Y-111723898D02*
X144198080Y-111723898D01*
X144198080Y-111723898D02*
X144388556Y-111628660D01*
X144388556Y-111628660D02*
X144483795Y-111533422D01*
X144483795Y-111533422D02*
X144579033Y-111342946D01*
X144579033Y-111342946D02*
X144579033Y-110581041D01*
X144579033Y-110581041D02*
X142579033Y-110581041D01*
X142579033Y-110581041D02*
X142579033Y-111247708D01*
X142579033Y-111247708D02*
X142674271Y-111438184D01*
X142674271Y-111438184D02*
X142769509Y-111533422D01*
X142769509Y-111533422D02*
X142959985Y-111628660D01*
X142959985Y-111628660D02*
X143150461Y-111628660D01*
X143150461Y-111628660D02*
X143340937Y-111533422D01*
X143340937Y-111533422D02*
X143436175Y-111438184D01*
X143436175Y-111438184D02*
X143531414Y-111247708D01*
X143531414Y-111247708D02*
X143531414Y-110581041D01*
X149459145Y-105281041D02*
X151078192Y-105281041D01*
X151078192Y-105281041D02*
X151268668Y-105376279D01*
X151268668Y-105376279D02*
X151363907Y-105471517D01*
X151363907Y-105471517D02*
X151459145Y-105661993D01*
X151459145Y-105661993D02*
X151459145Y-106042946D01*
X151459145Y-106042946D02*
X151363907Y-106233422D01*
X151363907Y-106233422D02*
X151268668Y-106328660D01*
X151268668Y-106328660D02*
X151078192Y-106423898D01*
X151078192Y-106423898D02*
X149459145Y-106423898D01*
X151363907Y-107281041D02*
X151459145Y-107566755D01*
X151459145Y-107566755D02*
X151459145Y-108042946D01*
X151459145Y-108042946D02*
X151363907Y-108233422D01*
X151363907Y-108233422D02*
X151268668Y-108328660D01*
X151268668Y-108328660D02*
X151078192Y-108423898D01*
X151078192Y-108423898D02*
X150887716Y-108423898D01*
X150887716Y-108423898D02*
X150697240Y-108328660D01*
X150697240Y-108328660D02*
X150602002Y-108233422D01*
X150602002Y-108233422D02*
X150506764Y-108042946D01*
X150506764Y-108042946D02*
X150411526Y-107661993D01*
X150411526Y-107661993D02*
X150316287Y-107471517D01*
X150316287Y-107471517D02*
X150221049Y-107376279D01*
X150221049Y-107376279D02*
X150030573Y-107281041D01*
X150030573Y-107281041D02*
X149840097Y-107281041D01*
X149840097Y-107281041D02*
X149649621Y-107376279D01*
X149649621Y-107376279D02*
X149554383Y-107471517D01*
X149554383Y-107471517D02*
X149459145Y-107661993D01*
X149459145Y-107661993D02*
X149459145Y-108138184D01*
X149459145Y-108138184D02*
X149554383Y-108423898D01*
X150411526Y-109947708D02*
X150506764Y-110233422D01*
X150506764Y-110233422D02*
X150602002Y-110328660D01*
X150602002Y-110328660D02*
X150792478Y-110423898D01*
X150792478Y-110423898D02*
X151078192Y-110423898D01*
X151078192Y-110423898D02*
X151268668Y-110328660D01*
X151268668Y-110328660D02*
X151363907Y-110233422D01*
X151363907Y-110233422D02*
X151459145Y-110042946D01*
X151459145Y-110042946D02*
X151459145Y-109281041D01*
X151459145Y-109281041D02*
X149459145Y-109281041D01*
X149459145Y-109281041D02*
X149459145Y-109947708D01*
X149459145Y-109947708D02*
X149554383Y-110138184D01*
X149554383Y-110138184D02*
X149649621Y-110233422D01*
X149649621Y-110233422D02*
X149840097Y-110328660D01*
X149840097Y-110328660D02*
X150030573Y-110328660D01*
X150030573Y-110328660D02*
X150221049Y-110233422D01*
X150221049Y-110233422D02*
X150316287Y-110138184D01*
X150316287Y-110138184D02*
X150411526Y-109947708D01*
X150411526Y-109947708D02*
X150411526Y-109281041D01*
X152679033Y-105281041D02*
X154298080Y-105281041D01*
X154298080Y-105281041D02*
X154488556Y-105376279D01*
X154488556Y-105376279D02*
X154583795Y-105471517D01*
X154583795Y-105471517D02*
X154679033Y-105661993D01*
X154679033Y-105661993D02*
X154679033Y-106042946D01*
X154679033Y-106042946D02*
X154583795Y-106233422D01*
X154583795Y-106233422D02*
X154488556Y-106328660D01*
X154488556Y-106328660D02*
X154298080Y-106423898D01*
X154298080Y-106423898D02*
X152679033Y-106423898D01*
X154107604Y-107281041D02*
X154107604Y-108233422D01*
X154679033Y-107090565D02*
X152679033Y-107757231D01*
X152679033Y-107757231D02*
X154679033Y-108423898D01*
X154679033Y-110233422D02*
X153726652Y-109566755D01*
X154679033Y-109090565D02*
X152679033Y-109090565D01*
X152679033Y-109090565D02*
X152679033Y-109852470D01*
X152679033Y-109852470D02*
X152774271Y-110042946D01*
X152774271Y-110042946D02*
X152869509Y-110138184D01*
X152869509Y-110138184D02*
X153059985Y-110233422D01*
X153059985Y-110233422D02*
X153345699Y-110233422D01*
X153345699Y-110233422D02*
X153536175Y-110138184D01*
X153536175Y-110138184D02*
X153631414Y-110042946D01*
X153631414Y-110042946D02*
X153726652Y-109852470D01*
X153726652Y-109852470D02*
X153726652Y-109090565D01*
X152679033Y-110804851D02*
X152679033Y-111947708D01*
X154679033Y-111376279D02*
X152679033Y-111376279D01*
D13*
X147623713Y-135094150D02*
X148530856Y-135094150D01*
X148530856Y-135094150D02*
X148712284Y-135033673D01*
X148712284Y-135033673D02*
X148833237Y-134912721D01*
X148833237Y-134912721D02*
X148893713Y-134731292D01*
X148893713Y-134731292D02*
X148893713Y-134610340D01*
X148893713Y-136364150D02*
X148893713Y-135638435D01*
X148893713Y-136001292D02*
X147623713Y-136001292D01*
X147623713Y-136001292D02*
X147805141Y-135880340D01*
X147805141Y-135880340D02*
X147926094Y-135759388D01*
X147926094Y-135759388D02*
X147986570Y-135638435D01*
X147143713Y-122684150D02*
X148050856Y-122684150D01*
X148050856Y-122684150D02*
X148232284Y-122623673D01*
X148232284Y-122623673D02*
X148353237Y-122502721D01*
X148353237Y-122502721D02*
X148413713Y-122321292D01*
X148413713Y-122321292D02*
X148413713Y-122200340D01*
X147143713Y-123833197D02*
X147143713Y-123591292D01*
X147143713Y-123591292D02*
X147204189Y-123470340D01*
X147204189Y-123470340D02*
X147264665Y-123409864D01*
X147264665Y-123409864D02*
X147446094Y-123288911D01*
X147446094Y-123288911D02*
X147687998Y-123228435D01*
X147687998Y-123228435D02*
X148171808Y-123228435D01*
X148171808Y-123228435D02*
X148292760Y-123288911D01*
X148292760Y-123288911D02*
X148353237Y-123349388D01*
X148353237Y-123349388D02*
X148413713Y-123470340D01*
X148413713Y-123470340D02*
X148413713Y-123712245D01*
X148413713Y-123712245D02*
X148353237Y-123833197D01*
X148353237Y-123833197D02*
X148292760Y-123893673D01*
X148292760Y-123893673D02*
X148171808Y-123954150D01*
X148171808Y-123954150D02*
X147869427Y-123954150D01*
X147869427Y-123954150D02*
X147748475Y-123893673D01*
X147748475Y-123893673D02*
X147687998Y-123833197D01*
X147687998Y-123833197D02*
X147627522Y-123712245D01*
X147627522Y-123712245D02*
X147627522Y-123470340D01*
X147627522Y-123470340D02*
X147687998Y-123349388D01*
X147687998Y-123349388D02*
X147748475Y-123288911D01*
X147748475Y-123288911D02*
X147869427Y-123228435D01*
D14*
X151977489Y-99262302D02*
X151977489Y-98262302D01*
X151977489Y-98262302D02*
X151739394Y-98262302D01*
X151739394Y-98262302D02*
X151596537Y-98309921D01*
X151596537Y-98309921D02*
X151501299Y-98405159D01*
X151501299Y-98405159D02*
X151453680Y-98500397D01*
X151453680Y-98500397D02*
X151406061Y-98690873D01*
X151406061Y-98690873D02*
X151406061Y-98833730D01*
X151406061Y-98833730D02*
X151453680Y-99024206D01*
X151453680Y-99024206D02*
X151501299Y-99119444D01*
X151501299Y-99119444D02*
X151596537Y-99214683D01*
X151596537Y-99214683D02*
X151739394Y-99262302D01*
X151739394Y-99262302D02*
X151977489Y-99262302D01*
X150453680Y-99262302D02*
X151025108Y-99262302D01*
X150739394Y-99262302D02*
X150739394Y-98262302D01*
X150739394Y-98262302D02*
X150834632Y-98405159D01*
X150834632Y-98405159D02*
X150929870Y-98500397D01*
X150929870Y-98500397D02*
X151025108Y-98548016D01*
X140994214Y-58074149D02*
X141708499Y-58074149D01*
X141708499Y-58074149D02*
X141851356Y-58026530D01*
X141851356Y-58026530D02*
X141946595Y-57931292D01*
X141946595Y-57931292D02*
X141994214Y-57788435D01*
X141994214Y-57788435D02*
X141994214Y-57693197D01*
X141089452Y-58502721D02*
X141041833Y-58550340D01*
X141041833Y-58550340D02*
X140994214Y-58645578D01*
X140994214Y-58645578D02*
X140994214Y-58883673D01*
X140994214Y-58883673D02*
X141041833Y-58978911D01*
X141041833Y-58978911D02*
X141089452Y-59026530D01*
X141089452Y-59026530D02*
X141184690Y-59074149D01*
X141184690Y-59074149D02*
X141279928Y-59074149D01*
X141279928Y-59074149D02*
X141422785Y-59026530D01*
X141422785Y-59026530D02*
X141994214Y-58455102D01*
X141994214Y-58455102D02*
X141994214Y-59074149D01*
X140572728Y-76102302D02*
X140572728Y-76816587D01*
X140572728Y-76816587D02*
X140620347Y-76959444D01*
X140620347Y-76959444D02*
X140715585Y-77054683D01*
X140715585Y-77054683D02*
X140858442Y-77102302D01*
X140858442Y-77102302D02*
X140953680Y-77102302D01*
X140191775Y-76102302D02*
X139525109Y-76102302D01*
X139525109Y-76102302D02*
X139953680Y-77102302D01*
X142206061Y-99262302D02*
X142539394Y-98786111D01*
X142777489Y-99262302D02*
X142777489Y-98262302D01*
X142777489Y-98262302D02*
X142396537Y-98262302D01*
X142396537Y-98262302D02*
X142301299Y-98309921D01*
X142301299Y-98309921D02*
X142253680Y-98357540D01*
X142253680Y-98357540D02*
X142206061Y-98452778D01*
X142206061Y-98452778D02*
X142206061Y-98595635D01*
X142206061Y-98595635D02*
X142253680Y-98690873D01*
X142253680Y-98690873D02*
X142301299Y-98738492D01*
X142301299Y-98738492D02*
X142396537Y-98786111D01*
X142396537Y-98786111D02*
X142777489Y-98786111D01*
X141729870Y-99262302D02*
X141539394Y-99262302D01*
X141539394Y-99262302D02*
X141444156Y-99214683D01*
X141444156Y-99214683D02*
X141396537Y-99167063D01*
X141396537Y-99167063D02*
X141301299Y-99024206D01*
X141301299Y-99024206D02*
X141253680Y-98833730D01*
X141253680Y-98833730D02*
X141253680Y-98452778D01*
X141253680Y-98452778D02*
X141301299Y-98357540D01*
X141301299Y-98357540D02*
X141348918Y-98309921D01*
X141348918Y-98309921D02*
X141444156Y-98262302D01*
X141444156Y-98262302D02*
X141634632Y-98262302D01*
X141634632Y-98262302D02*
X141729870Y-98309921D01*
X141729870Y-98309921D02*
X141777489Y-98357540D01*
X141777489Y-98357540D02*
X141825108Y-98452778D01*
X141825108Y-98452778D02*
X141825108Y-98690873D01*
X141825108Y-98690873D02*
X141777489Y-98786111D01*
X141777489Y-98786111D02*
X141729870Y-98833730D01*
X141729870Y-98833730D02*
X141634632Y-98881349D01*
X141634632Y-98881349D02*
X141444156Y-98881349D01*
X141444156Y-98881349D02*
X141348918Y-98833730D01*
X141348918Y-98833730D02*
X141301299Y-98786111D01*
X141301299Y-98786111D02*
X141253680Y-98690873D01*
D13*
X138243713Y-122784150D02*
X139150856Y-122784150D01*
X139150856Y-122784150D02*
X139332284Y-122723673D01*
X139332284Y-122723673D02*
X139453237Y-122602721D01*
X139453237Y-122602721D02*
X139513713Y-122421292D01*
X139513713Y-122421292D02*
X139513713Y-122300340D01*
X138667046Y-123933197D02*
X139513713Y-123933197D01*
X138183237Y-123630816D02*
X139090379Y-123328435D01*
X139090379Y-123328435D02*
X139090379Y-124114626D01*
D11*
%TO.C,J1*%
X154939395Y-144607483D02*
X149839395Y-144607483D01*
X147239395Y-144607483D02*
X141539395Y-144607483D01*
X141539395Y-144607483D02*
X141539395Y-126607483D01*
D15*
X141079395Y-131162483D02*
X141079395Y-131162483D01*
X140979395Y-131162483D02*
X140979395Y-131162483D01*
D11*
X154939395Y-126607483D02*
X154939395Y-144607483D01*
X149839395Y-126607483D02*
X154939395Y-126607483D01*
X141539395Y-126607483D02*
X147239395Y-126607483D01*
D15*
X140979395Y-131162483D02*
G75*
G02*
X141079395Y-131162483I50000J0D01*
G01*
X141079395Y-131162483D02*
G75*
G02*
X140979395Y-131162483I-50000J0D01*
G01*
%TO.C,J6*%
X154724395Y-121007483D02*
X154724395Y-121007483D01*
X154824395Y-121007483D02*
X154824395Y-121007483D01*
X154724395Y-121007483D02*
G75*
G02*
X154824395Y-121007483I50000J0D01*
G01*
X154824395Y-121007483D02*
G75*
G02*
X154724395Y-121007483I-50000J0D01*
G01*
D16*
%TO.C,D1*%
X147739395Y-98072483D02*
X150199395Y-98072483D01*
X150199395Y-98072483D02*
X150199395Y-99542483D01*
X150199395Y-99542483D02*
X147739395Y-99542483D01*
%TO.C,J2*%
X142389395Y-49057483D02*
X145239395Y-49057483D01*
X142389395Y-51907483D02*
X142389395Y-49057483D01*
X142629395Y-49297483D02*
X152449395Y-49297483D01*
X142629395Y-58407483D02*
X142629395Y-49297483D01*
X142629395Y-58407483D02*
X142629395Y-67517483D01*
X142629395Y-67517483D02*
X152449395Y-67517483D01*
X152449395Y-49297483D02*
X152449395Y-56597483D01*
X152449395Y-56597483D02*
X153849395Y-56597483D01*
X152449395Y-60217483D02*
X153849395Y-60217483D01*
X152449395Y-67517483D02*
X152449395Y-60217483D01*
X153849395Y-56597483D02*
X153849395Y-58407483D01*
X153849395Y-60217483D02*
X153849395Y-58407483D01*
%TO.C,J7*%
X141619395Y-76647483D02*
X154659395Y-76647483D01*
X141619395Y-84117483D02*
X141619395Y-76647483D01*
X142829395Y-77607483D02*
X143079395Y-78607483D01*
X142829395Y-78957483D02*
X142829395Y-83257483D01*
X142829395Y-83257483D02*
X143579395Y-83257483D01*
X143079395Y-78607483D02*
X143579395Y-78607483D01*
X143579395Y-78607483D02*
X143579395Y-78957483D01*
X143579395Y-78957483D02*
X142829395Y-78957483D01*
X145079395Y-78607483D02*
X145579395Y-78607483D01*
X145079395Y-78957483D02*
X145079395Y-78607483D01*
X145079395Y-83257483D02*
X145829395Y-83257483D01*
X145579395Y-78607483D02*
X145829395Y-77607483D01*
X145829395Y-77607483D02*
X142829395Y-77607483D01*
X145829395Y-78957483D02*
X145079395Y-78957483D01*
X145829395Y-83257483D02*
X145829395Y-78957483D01*
X146639395Y-77607483D02*
X146889395Y-78607483D01*
X146639395Y-78957483D02*
X146639395Y-83257483D01*
X146639395Y-83257483D02*
X147389395Y-83257483D01*
X146889395Y-78607483D02*
X147389395Y-78607483D01*
X147389395Y-78607483D02*
X147389395Y-78957483D01*
X147389395Y-78957483D02*
X146639395Y-78957483D01*
X148889395Y-78607483D02*
X149389395Y-78607483D01*
X148889395Y-78957483D02*
X148889395Y-78607483D01*
X148889395Y-83257483D02*
X149639395Y-83257483D01*
X149389395Y-78607483D02*
X149639395Y-77607483D01*
X149639395Y-77607483D02*
X146639395Y-77607483D01*
X149639395Y-78957483D02*
X148889395Y-78957483D01*
X149639395Y-83257483D02*
X149639395Y-78957483D01*
X150449395Y-77607483D02*
X150699395Y-78607483D01*
X150449395Y-78957483D02*
X150449395Y-83257483D01*
X150449395Y-83257483D02*
X151199395Y-83257483D01*
X150699395Y-78607483D02*
X151199395Y-78607483D01*
X151199395Y-78607483D02*
X151199395Y-78957483D01*
X151199395Y-78957483D02*
X150449395Y-78957483D01*
X152699395Y-78607483D02*
X153199395Y-78607483D01*
X152699395Y-78957483D02*
X152699395Y-78607483D01*
X152699395Y-83257483D02*
X153449395Y-83257483D01*
X153199395Y-78607483D02*
X153449395Y-77607483D01*
X153449395Y-77607483D02*
X150449395Y-77607483D01*
X153449395Y-78957483D02*
X152699395Y-78957483D01*
X153449395Y-83257483D02*
X153449395Y-78957483D01*
X154659395Y-76647483D02*
X154659395Y-84117483D01*
X154659395Y-84117483D02*
X141619395Y-84117483D01*
X155049395Y-76257483D02*
X153049395Y-76257483D01*
X155049395Y-77507483D02*
X155049395Y-76257483D01*
X143579748Y-83257327D02*
G75*
G02*
X145079395Y-83257483I749647J-1700156D01*
G01*
X147389748Y-83257327D02*
G75*
G02*
X148889395Y-83257483I749647J-1700156D01*
G01*
X151199748Y-83257327D02*
G75*
G02*
X152699395Y-83257483I749647J-1700156D01*
G01*
%TO.C,R9*%
X145166459Y-98072483D02*
X144712331Y-98072483D01*
X145166459Y-99542483D02*
X144712331Y-99542483D01*
D15*
%TO.C,J4*%
X145954395Y-121007483D02*
X145954395Y-121007483D01*
X146054395Y-121007483D02*
X146054395Y-121007483D01*
X145954395Y-121007483D02*
G75*
G02*
X146054395Y-121007483I50000J0D01*
G01*
X146054395Y-121007483D02*
G75*
G02*
X145954395Y-121007483I-50000J0D01*
G01*
%TD*%
%LPC*%
D17*
%TO.C,J1*%
X151539395Y-141322483D03*
X151539395Y-129892483D03*
D18*
X145179395Y-131162483D03*
D19*
X142639395Y-132432483D03*
X145179395Y-133702483D03*
X142639395Y-134972483D03*
X145179395Y-136242483D03*
X142639395Y-137512483D03*
X145179395Y-138782483D03*
X142639395Y-140052483D03*
D20*
X148589395Y-127732483D03*
X148589395Y-143482483D03*
%TD*%
D21*
%TO.C,H4*%
X148649395Y-158057483D03*
%TD*%
D22*
%TO.C,J3*%
X133366895Y-51807483D03*
X133366895Y-141807483D03*
D23*
X131126895Y-57437483D03*
D24*
X131126895Y-59977483D03*
X131126895Y-62517483D03*
X131126895Y-65057483D03*
X131126895Y-67597483D03*
X131126895Y-70137483D03*
X131126895Y-72677483D03*
X131126895Y-75217483D03*
X131126895Y-77757483D03*
X131126895Y-80297483D03*
X131126895Y-82837483D03*
X131126895Y-85377483D03*
X131126895Y-87917483D03*
X131126895Y-90457483D03*
X131126895Y-92997483D03*
X131126895Y-95537483D03*
X131126895Y-98077483D03*
X131126895Y-100617483D03*
X131126895Y-103157483D03*
X131126895Y-105697483D03*
X131126895Y-108237483D03*
X131126895Y-110777483D03*
X131126895Y-113317483D03*
X131126895Y-115857483D03*
X131126895Y-118397483D03*
X131126895Y-120937483D03*
X131126895Y-123477483D03*
X131126895Y-126017483D03*
X131126895Y-128557483D03*
X131126895Y-131097483D03*
X131126895Y-133637483D03*
X131126895Y-136177483D03*
X136206895Y-57437483D03*
X136206895Y-59977483D03*
X136206895Y-62517483D03*
X136206895Y-65057483D03*
X136206895Y-67597483D03*
X136206895Y-70137483D03*
X136206895Y-72677483D03*
X136206895Y-75217483D03*
X136206895Y-77757483D03*
X136206895Y-80297483D03*
X136206895Y-82837483D03*
X136206895Y-85377483D03*
X136206895Y-87917483D03*
X136206895Y-90457483D03*
X136206895Y-92997483D03*
X136206895Y-95537483D03*
X136206895Y-98077483D03*
X136206895Y-100617483D03*
X136206895Y-103157483D03*
X136206895Y-105697483D03*
X136206895Y-108237483D03*
X136206895Y-110777483D03*
X136206895Y-113317483D03*
X136206895Y-115857483D03*
X136206895Y-118397483D03*
X136206895Y-120937483D03*
X136206895Y-123477483D03*
X136206895Y-126017483D03*
X136206895Y-128557483D03*
X136206895Y-131097483D03*
X136206895Y-133637483D03*
X136206895Y-136177483D03*
%TD*%
D21*
%TO.C,H3*%
X148649395Y-35557483D03*
%TD*%
%TO.C,H2*%
X133409395Y-158057483D03*
%TD*%
%TO.C,H1*%
X133409395Y-35557483D03*
%TD*%
D25*
%TO.C,J6*%
X152124395Y-122257483D03*
D26*
X152124395Y-114257483D03*
D27*
X153609395Y-121007483D03*
X153609395Y-119507483D03*
X153609395Y-119007483D03*
X153609395Y-118507483D03*
X153609395Y-118007483D03*
X153609395Y-117507483D03*
X153609395Y-117007483D03*
X153609395Y-115507483D03*
X150639395Y-115507483D03*
X150639395Y-117007483D03*
X150639395Y-117507483D03*
X150639395Y-118007483D03*
X150639395Y-118507483D03*
X150639395Y-119007483D03*
X150639395Y-119507483D03*
X150639395Y-121007483D03*
D28*
X153554395Y-122257483D03*
X153554395Y-114257483D03*
X150694395Y-122257483D03*
X150694395Y-114257483D03*
%TD*%
D29*
%TO.C,D1*%
X149414395Y-98807483D03*
X147664395Y-98807483D03*
%TD*%
D30*
%TO.C,J2*%
X144989395Y-52107483D03*
D31*
X144989395Y-56307483D03*
X144989395Y-60507483D03*
X144989395Y-64707483D03*
X150489395Y-52107483D03*
X150489395Y-56307483D03*
X150489395Y-60507483D03*
X150489395Y-64707483D03*
%TD*%
D32*
%TO.C,J7*%
X151949395Y-81007483D03*
D33*
X148139395Y-81007483D03*
X144329395Y-81007483D03*
%TD*%
D34*
%TO.C,R9*%
X145939395Y-98807483D03*
X143939395Y-98807483D03*
%TD*%
D25*
%TO.C,J4*%
X143354395Y-122257483D03*
D26*
X143354395Y-114257483D03*
D27*
X144839395Y-121007483D03*
X144839395Y-119507483D03*
X144839395Y-119007483D03*
X144839395Y-118507483D03*
X144839395Y-118007483D03*
X144839395Y-117507483D03*
X144839395Y-117007483D03*
X144839395Y-115507483D03*
X141869395Y-115507483D03*
X141869395Y-117007483D03*
X141869395Y-117507483D03*
X141869395Y-118007483D03*
X141869395Y-118507483D03*
X141869395Y-119007483D03*
X141869395Y-119507483D03*
X141869395Y-121007483D03*
D28*
X144784395Y-122257483D03*
X144784395Y-114257483D03*
X141924395Y-122257483D03*
X141924395Y-114257483D03*
%TD*%
%LPD*%
M02*
