M48
; DRILL file {KiCad 9.0.4} date 2026-02-15T00:10:35+0100
; FORMAT={-:-/ absolute / inch / decimal}
; #@! TF.CreationDate,2026-02-15T00:10:35+01:00
; #@! TF.GenerationSoftware,Kicad,Pcbnew,9.0.4
; #@! TF.FileFunction,Plated,1,2,PTH
FMAT,2
INCH
; #@! TA.AperFunction,Plated,PTH,ViaDrill
T1C0.0118
; #@! TA.AperFunction,Plated,PTH,ComponentDrill
T2C0.0354
; #@! TA.AperFunction,Plated,PTH,ComponentDrill
T3C0.0394
; #@! TA.AperFunction,Plated,PTH,ComponentDrill
T4C0.0472
; #@! TA.AperFunction,Plated,PTH,ComponentDrill
T5C0.0492
; #@! TA.AperFunction,Plated,PTH,ComponentDrill
T6C0.0551
; #@! TA.AperFunction,Plated,PTH,ComponentDrill
T7C0.0630
; #@! TA.AperFunction,Plated,PTH,ComponentDrill
T8C0.1063
%
G90
G05
T1
X5.096Y-5.2838
X5.1039Y-4.8074
X5.1039Y-4.9097
X5.1039Y-5.0082
X5.1039Y-5.1066
X5.1079Y-3.9058
X5.1079Y-4.0121
X5.1079Y-4.1145
X5.1253Y-1.8711
X5.1272Y-5.554
X5.1285Y-5.769
X5.1288Y-5.6665
X5.1305Y-6.0781
X5.1305Y-1.9601
X5.1336Y-2.0632
X5.1376Y-1.662
X5.1452Y-5.8585
X5.1462Y-1.5758
X5.1486Y-5.4641
X5.1501Y-1.7585
X5.1506Y-5.9811
X5.2102Y-4.4216
X5.2141Y-4.2286
X5.2181Y-4.3349
X5.2225Y-1.8709
X5.2242Y-3.3788
X5.225Y-3.7566
X5.2268Y-2.8793
X5.2274Y-3.4794
X5.2275Y-5.8587
X5.2279Y-3.6628
X5.2286Y-5.2566
X5.2298Y-4.7584
X5.2306Y-3.1801
X5.2325Y-4.072
X5.2329Y-3.5522
X5.2333Y-5.7781
X5.2338Y-5.0475
X5.2353Y-1.77
X5.2364Y-5.4695
X5.2371Y-3.9611
X5.2405Y-4.5645
X5.2409Y-6.0764
X5.2416Y-2.2723
X5.2443Y-3.0649
X5.2464Y-1.6672
X5.2485Y-2.7762
X5.2488Y-2.9683
X5.2514Y-4.6653
X5.2518Y-3.2556
X5.2518Y-1.556
X5.2527Y-5.9577
X5.285Y-2.2365
X5.3008Y-2.3074
X5.3047Y-4.3349
X5.3086Y-4.2286
X5.3086Y-4.4216
X5.3311Y-5.7606
X5.3332Y-5.8541
X5.3347Y-5.4627
X5.3352Y-1.6722
X5.3363Y-6.0648
X5.3365Y-5.9573
X5.3423Y-1.7618
X5.3448Y-1.9582
X5.3456Y-1.562
X5.3469Y-1.8792
X5.3479Y-5.5525
X5.3494Y-5.6547
X5.4071Y-2.1893
X5.4224Y-4.7717
X5.4237Y-3.3659
X5.4243Y-5.4592
X5.4254Y-2.77
X5.4254Y-5.7568
X5.4263Y-5.8554
X5.427Y-3.5828
X5.4272Y-5.9819
X5.4272Y-2.9639
X5.4294Y-6.0635
X5.4323Y-1.7745
X5.4338Y-5.5825
X5.4347Y-3.8787
X5.4357Y-4.6586
X5.4358Y-3.2563
X5.439Y-3.4587
X5.4394Y-4.1558
X5.4407Y-2.158
X5.444Y-1.5542
X5.4462Y-2.8794
X5.4489Y-4.9596
X5.4489Y-5.672
X5.4513Y-1.8729
X5.4516Y-3.1583
X5.4543Y-4.3428
X5.4544Y-1.6735
X5.4779Y-2.1223
X5.4803Y-2.626
X5.4882Y-2.7402
X5.4882Y-3.0827
X5.4961Y-2.9138
X5.4961Y-2.9882
X5.5246Y-3.2756
X5.5249Y-2.0699
X5.5258Y-3.1792
X5.5265Y-1.8625
X5.5272Y-5.9681
X5.5278Y-4.2722
X5.5301Y-1.6838
X5.5313Y-3.656
X5.532Y-3.8552
X5.5345Y-1.563
X5.5357Y-3.7697
X5.5373Y-3.4577
X5.5403Y-2.7838
X5.5406Y-5.6704
X5.5454Y-4.1808
X5.5459Y-3.376
X5.5472Y-3.0354
X5.549Y-5.8719
X5.5496Y-4.0763
X5.5508Y-5.5694
X5.5512Y-2.5475
X5.5515Y-2.6655
X5.5518Y-1.768
X5.5519Y-6.0635
X5.5645Y-2.0515
X5.622Y-2.6181
X5.6247Y-6.0741
X5.6248Y-5.0643
X5.6252Y-1.5791
X5.6285Y-4.6391
X5.6302Y-2.6769
X5.6333Y-3.0618
X5.6351Y-3.7719
X5.6366Y-5.9619
X5.6391Y-2.4706
X5.6397Y-3.6695
X5.6399Y-1.7742
X5.6423Y-3.3701
X5.6433Y-4.5475
X5.6433Y-4.768
X5.646Y-4.6868
X5.646Y-5.8671
X5.6472Y-4.8743
X5.6476Y-1.6569
X5.6496Y-4.9827
X5.6501Y-1.8549
X5.6535Y-2.8819
X5.6748Y-3.9334
X5.6827Y-4.9097
X5.725Y-4.3837
X5.7297Y-3.081
X5.731Y-1.8726
X5.732Y-5.9616
X5.7322Y-1.7692
X5.7338Y-3.957
X5.7346Y-6.0529
X5.7351Y-3.5542
X5.7369Y-2.6812
X5.7382Y-4.9765
X5.7405Y-1.6821
X5.7433Y-3.6572
X5.7448Y-5.8657
X5.7475Y-5.0564
X5.7476Y-1.5736
X5.7547Y-3.7687
X5.7614Y-3.1893
X5.7717Y-4.6063
X5.7811Y-2.4609
X5.7811Y-5.4255
X5.789Y-4.0003
X5.7968Y-4.9058
X5.8047Y-4.5279
X5.8047Y-4.6499
X5.811Y-2.374
X5.8126Y-2.3034
X5.8126Y-4.4255
X5.815Y-2.5669
X5.8165Y-2.0515
X5.8165Y-2.142
X5.8189Y-2.2126
X5.8268Y-4.7638
X5.8274Y-1.5684
X5.8363Y-3.7548
X5.8372Y-3.6648
X5.8375Y-3.4538
X5.8386Y-3.0579
X5.8401Y-5.1582
X5.8441Y-1.8672
X5.8463Y-2.4646
X5.8479Y-4.8781
X5.848Y-4.7168
X5.85Y-1.6596
X5.8501Y-1.778
X5.8504Y-2.6378
X5.8543Y-3.5669
X5.8834Y-5.2247
X5.8874Y-4.1735
X5.8874Y-4.2798
X5.8874Y-4.3822
X5.8874Y-4.4452
X5.9016Y-2.7638
X5.9016Y-2.815
X5.9016Y-2.8622
X5.9016Y-2.9134
X5.9031Y-3.1893
X5.9071Y-4.0003
X5.9116Y-4.425
X5.9228Y-2.2956
X5.9228Y-4.9097
X5.9231Y-5.9581
X5.9252Y-2.1378
X5.9252Y-2.4606
X5.9289Y-3.577
X5.9302Y-1.8566
X5.9311Y-5.8642
X5.9327Y-3.3837
X5.9328Y-1.7802
X5.9357Y-3.0669
X5.9376Y-3.4674
X5.9395Y-1.5792
X5.9403Y-5.7642
X5.9415Y-3.8595
X5.9415Y-3.6536
X5.9431Y-6.0818
X5.9462Y-3.7655
X5.9464Y-5.2833
X5.947Y-5.3584
X5.9504Y-1.6553
X5.9515Y-4.9807
X5.9543Y-5.4603
X5.9743Y-4.6358
X5.9897Y-2.4609
X5.9897Y-4.5475
X5.9897Y-4.7641
X5.9897Y-4.8664
X5.9976Y-2.1342
X6.0045Y-4.6725
X6.0094Y-2.3034
X6.0244Y-6.2593
X6.0248Y-5.9598
X6.0263Y-3.0824
X6.0283Y-6.1731
X6.029Y-6.0807
X6.0291Y-5.7772
X6.0315Y-2.7638
X6.0315Y-2.815
X6.0315Y-2.8622
X6.0315Y-2.9134
X6.0326Y-3.8797
X6.0327Y-3.7698
X6.0356Y-3.4621
X6.0362Y-3.6812
X6.0372Y-3.972
X6.0416Y-5.8601
X6.0417Y-3.5726
X6.0426Y-4.9648
X6.0433Y-2.6181
X6.0433Y-2.7362
X6.0488Y-2.969
X6.0516Y-4.0733
X6.0537Y-4.1753
X6.0545Y-3.3592
X6.0685Y-4.9097
X6.0984Y-2.6772
T2
X5.6157Y-5.2139
X5.6157Y-5.3139
X5.6157Y-5.4139
X5.6157Y-5.5139
X5.7157Y-5.1639
X5.7157Y-5.2639
X5.7157Y-5.3639
X5.7157Y-5.4639
T3
X5.1625Y-2.2613
X5.1625Y-2.3613
X5.1625Y-2.4613
X5.1625Y-2.5613
X5.1625Y-2.6613
X5.1625Y-2.7613
X5.1625Y-2.8613
X5.1625Y-2.9613
X5.1625Y-3.0613
X5.1625Y-3.1613
X5.1625Y-3.2613
X5.1625Y-3.3613
X5.1625Y-3.4613
X5.1625Y-3.5613
X5.1625Y-3.6613
X5.1625Y-3.7613
X5.1625Y-3.8613
X5.1625Y-3.9613
X5.1625Y-4.0613
X5.1625Y-4.1613
X5.1625Y-4.2613
X5.1625Y-4.3613
X5.1625Y-4.4613
X5.1625Y-4.5613
X5.1625Y-4.6613
X5.1625Y-4.7613
X5.1625Y-4.8613
X5.1625Y-4.9613
X5.1625Y-5.0613
X5.1625Y-5.1613
X5.1625Y-5.2613
X5.1625Y-5.3613
X5.3625Y-2.2613
X5.3625Y-2.3613
X5.3625Y-2.4613
X5.3625Y-2.5613
X5.3625Y-2.6613
X5.3625Y-2.7613
X5.3625Y-2.8613
X5.3625Y-2.9613
X5.3625Y-3.0613
X5.3625Y-3.1613
X5.3625Y-3.2613
X5.3625Y-3.3613
X5.3625Y-3.4613
X5.3625Y-3.5613
X5.3625Y-3.6613
X5.3625Y-3.7613
X5.3625Y-3.8613
X5.3625Y-3.9613
X5.3625Y-4.0613
X5.3625Y-4.1613
X5.3625Y-4.2613
X5.3625Y-4.3613
X5.3625Y-4.4613
X5.3625Y-4.5613
X5.3625Y-4.6613
X5.3625Y-4.7613
X5.3625Y-4.8613
X5.3625Y-4.9613
X5.3625Y-5.0613
X5.3625Y-5.1613
X5.3625Y-5.2613
X5.3625Y-5.3613
T4
X5.6823Y-3.1893
X5.8323Y-3.1893
X5.9823Y-3.1893
T5
X5.5876Y-4.4983
X5.5876Y-4.8133
X5.7002Y-4.4983
X5.7002Y-4.8133
X5.9329Y-4.4983
X5.9329Y-4.8133
X6.0454Y-4.4983
X6.0454Y-4.8133
T6
X5.7082Y-2.0515
X5.7082Y-2.2168
X5.7082Y-2.3822
X5.7082Y-2.5475
X5.9248Y-2.0515
X5.9248Y-2.2168
X5.9248Y-2.3822
X5.9248Y-2.5475
T7
X5.85Y-5.0288
X5.85Y-5.6489
T8
X5.2523Y-1.3999
X5.2523Y-6.2227
X5.8523Y-1.3999
X5.8523Y-6.2227
M30
