%TF.GenerationSoftware,KiCad,Pcbnew,9.0.4*%
%TF.CreationDate,2026-02-12T22:59:18+01:00*%
%TF.ProjectId,SCA_board,5343415f-626f-4617-9264-2e6b69636164,0.1*%
%TF.SameCoordinates,Original*%
%TF.FileFunction,Legend,Top*%
%TF.FilePolarity,Positive*%
%FSLAX46Y46*%
G04 Gerber Fmt 4.6, Leading zero omitted, Abs format (unit mm)*
G04 Created by KiCad (PCBNEW 9.0.4) date 2026-02-12 22:59:18*
%MOMM*%
%LPD*%
G01*
G04 APERTURE LIST*
G04 Aperture macros list*
%AMRoundRect*
0 Rectangle with rounded corners*
0 $1 Rounding radius*
0 $2 $3 $4 $5 $6 $7 $8 $9 X,Y pos of 4 corners*
0 Add a 4 corners polygon primitive as box body*
4,1,4,$2,$3,$4,$5,$6,$7,$8,$9,$2,$3,0*
0 Add four circle primitives for the rounded corners*
1,1,$1+$1,$2,$3*
1,1,$1+$1,$4,$5*
1,1,$1+$1,$6,$7*
1,1,$1+$1,$8,$9*
0 Add four rect primitives between the rounded corners*
20,1,$1+$1,$2,$3,$4,$5,0*
20,1,$1+$1,$4,$5,$6,$7,0*
20,1,$1+$1,$6,$7,$8,$9,0*
20,1,$1+$1,$8,$9,$2,$3,0*%
G04 Aperture macros list end*
%ADD10C,0.100000*%
%ADD11C,0.150000*%
%ADD12C,0.120000*%
%ADD13RoundRect,0.087500X0.725000X0.087500X-0.725000X0.087500X-0.725000X-0.087500X0.725000X-0.087500X0*%
%ADD14RoundRect,0.237500X-0.237500X0.250000X-0.237500X-0.250000X0.237500X-0.250000X0.237500X0.250000X0*%
%ADD15RoundRect,0.237500X-0.237500X0.300000X-0.237500X-0.300000X0.237500X-0.300000X0.237500X0.300000X0*%
%ADD16RoundRect,0.237500X0.237500X-0.300000X0.237500X0.300000X-0.237500X0.300000X-0.237500X-0.300000X0*%
%ADD17C,4.700000*%
%ADD18RoundRect,0.250000X-0.412500X-0.650000X0.412500X-0.650000X0.412500X0.650000X-0.412500X0.650000X0*%
%ADD19C,2.850000*%
%ADD20RoundRect,0.249999X-0.525001X-0.525001X0.525001X-0.525001X0.525001X0.525001X-0.525001X0.525001X0*%
%ADD21C,1.550000*%
%ADD22RoundRect,0.162500X0.162500X-0.617500X0.162500X0.617500X-0.162500X0.617500X-0.162500X-0.617500X0*%
%ADD23RoundRect,0.237500X-0.250000X-0.237500X0.250000X-0.237500X0.250000X0.237500X-0.250000X0.237500X0*%
%ADD24RoundRect,0.160000X0.160000X-0.197500X0.160000X0.197500X-0.160000X0.197500X-0.160000X-0.197500X0*%
%ADD25C,0.660000*%
%ADD26C,1.080000*%
%ADD27C,1.875000*%
%ADD28RoundRect,0.250001X-1.399999X1.099999X-1.399999X-1.099999X1.399999X-1.099999X1.399999X1.099999X0*%
%ADD29O,3.300000X2.700000*%
%ADD30C,3.250000*%
%ADD31R,1.400000X1.400000*%
%ADD32C,1.400000*%
%ADD33C,2.400000*%
%ADD34RoundRect,0.250000X0.650000X1.550000X-0.650000X1.550000X-0.650000X-1.550000X0.650000X-1.550000X0*%
%ADD35O,1.800000X3.600000*%
G04 APERTURE END LIST*
D10*
X136189598Y-152872419D02*
X136189598Y-153586704D01*
X136189598Y-153586704D02*
X136141979Y-153729561D01*
X136141979Y-153729561D02*
X136046741Y-153824800D01*
X136046741Y-153824800D02*
X135903884Y-153872419D01*
X135903884Y-153872419D02*
X135808646Y-153872419D01*
X137141979Y-153872419D02*
X136665789Y-153872419D01*
X136665789Y-153872419D02*
X136665789Y-152872419D01*
X138046741Y-153777180D02*
X137999122Y-153824800D01*
X137999122Y-153824800D02*
X137856265Y-153872419D01*
X137856265Y-153872419D02*
X137761027Y-153872419D01*
X137761027Y-153872419D02*
X137618170Y-153824800D01*
X137618170Y-153824800D02*
X137522932Y-153729561D01*
X137522932Y-153729561D02*
X137475313Y-153634323D01*
X137475313Y-153634323D02*
X137427694Y-153443847D01*
X137427694Y-153443847D02*
X137427694Y-153300990D01*
X137427694Y-153300990D02*
X137475313Y-153110514D01*
X137475313Y-153110514D02*
X137522932Y-153015276D01*
X137522932Y-153015276D02*
X137618170Y-152920038D01*
X137618170Y-152920038D02*
X137761027Y-152872419D01*
X137761027Y-152872419D02*
X137856265Y-152872419D01*
X137856265Y-152872419D02*
X137999122Y-152920038D01*
X137999122Y-152920038D02*
X138046741Y-152967657D01*
X138761027Y-152872419D02*
X138761027Y-153586704D01*
X138761027Y-153586704D02*
X138713408Y-153729561D01*
X138713408Y-153729561D02*
X138618170Y-153824800D01*
X138618170Y-153824800D02*
X138475313Y-153872419D01*
X138475313Y-153872419D02*
X138380075Y-153872419D01*
X139713408Y-153872419D02*
X139237218Y-153872419D01*
X139237218Y-153872419D02*
X139237218Y-152872419D01*
X140618170Y-153777180D02*
X140570551Y-153824800D01*
X140570551Y-153824800D02*
X140427694Y-153872419D01*
X140427694Y-153872419D02*
X140332456Y-153872419D01*
X140332456Y-153872419D02*
X140189599Y-153824800D01*
X140189599Y-153824800D02*
X140094361Y-153729561D01*
X140094361Y-153729561D02*
X140046742Y-153634323D01*
X140046742Y-153634323D02*
X139999123Y-153443847D01*
X139999123Y-153443847D02*
X139999123Y-153300990D01*
X139999123Y-153300990D02*
X140046742Y-153110514D01*
X140046742Y-153110514D02*
X140094361Y-153015276D01*
X140094361Y-153015276D02*
X140189599Y-152920038D01*
X140189599Y-152920038D02*
X140332456Y-152872419D01*
X140332456Y-152872419D02*
X140427694Y-152872419D01*
X140427694Y-152872419D02*
X140570551Y-152920038D01*
X140570551Y-152920038D02*
X140618170Y-152967657D01*
X141332456Y-152872419D02*
X141332456Y-153586704D01*
X141332456Y-153586704D02*
X141284837Y-153729561D01*
X141284837Y-153729561D02*
X141189599Y-153824800D01*
X141189599Y-153824800D02*
X141046742Y-153872419D01*
X141046742Y-153872419D02*
X140951504Y-153872419D01*
X142284837Y-153872419D02*
X141808647Y-153872419D01*
X141808647Y-153872419D02*
X141808647Y-152872419D01*
X143189599Y-153777180D02*
X143141980Y-153824800D01*
X143141980Y-153824800D02*
X142999123Y-153872419D01*
X142999123Y-153872419D02*
X142903885Y-153872419D01*
X142903885Y-153872419D02*
X142761028Y-153824800D01*
X142761028Y-153824800D02*
X142665790Y-153729561D01*
X142665790Y-153729561D02*
X142618171Y-153634323D01*
X142618171Y-153634323D02*
X142570552Y-153443847D01*
X142570552Y-153443847D02*
X142570552Y-153300990D01*
X142570552Y-153300990D02*
X142618171Y-153110514D01*
X142618171Y-153110514D02*
X142665790Y-153015276D01*
X142665790Y-153015276D02*
X142761028Y-152920038D01*
X142761028Y-152920038D02*
X142903885Y-152872419D01*
X142903885Y-152872419D02*
X142999123Y-152872419D01*
X142999123Y-152872419D02*
X143141980Y-152920038D01*
X143141980Y-152920038D02*
X143189599Y-152967657D01*
X143903885Y-152872419D02*
X143903885Y-153586704D01*
X143903885Y-153586704D02*
X143856266Y-153729561D01*
X143856266Y-153729561D02*
X143761028Y-153824800D01*
X143761028Y-153824800D02*
X143618171Y-153872419D01*
X143618171Y-153872419D02*
X143522933Y-153872419D01*
X144856266Y-153872419D02*
X144380076Y-153872419D01*
X144380076Y-153872419D02*
X144380076Y-152872419D01*
X145761028Y-153777180D02*
X145713409Y-153824800D01*
X145713409Y-153824800D02*
X145570552Y-153872419D01*
X145570552Y-153872419D02*
X145475314Y-153872419D01*
X145475314Y-153872419D02*
X145332457Y-153824800D01*
X145332457Y-153824800D02*
X145237219Y-153729561D01*
X145237219Y-153729561D02*
X145189600Y-153634323D01*
X145189600Y-153634323D02*
X145141981Y-153443847D01*
X145141981Y-153443847D02*
X145141981Y-153300990D01*
X145141981Y-153300990D02*
X145189600Y-153110514D01*
X145189600Y-153110514D02*
X145237219Y-153015276D01*
X145237219Y-153015276D02*
X145332457Y-152920038D01*
X145332457Y-152920038D02*
X145475314Y-152872419D01*
X145475314Y-152872419D02*
X145570552Y-152872419D01*
X145570552Y-152872419D02*
X145713409Y-152920038D01*
X145713409Y-152920038D02*
X145761028Y-152967657D01*
D11*
X149977490Y-100062302D02*
X149977490Y-100871825D01*
X149977490Y-100871825D02*
X150025109Y-100967063D01*
X150025109Y-100967063D02*
X150072728Y-101014683D01*
X150072728Y-101014683D02*
X150167966Y-101062302D01*
X150167966Y-101062302D02*
X150358442Y-101062302D01*
X150358442Y-101062302D02*
X150453680Y-101014683D01*
X150453680Y-101014683D02*
X150501299Y-100967063D01*
X150501299Y-100967063D02*
X150548918Y-100871825D01*
X150548918Y-100871825D02*
X150548918Y-100062302D01*
X150977490Y-100157540D02*
X151025109Y-100109921D01*
X151025109Y-100109921D02*
X151120347Y-100062302D01*
X151120347Y-100062302D02*
X151358442Y-100062302D01*
X151358442Y-100062302D02*
X151453680Y-100109921D01*
X151453680Y-100109921D02*
X151501299Y-100157540D01*
X151501299Y-100157540D02*
X151548918Y-100252778D01*
X151548918Y-100252778D02*
X151548918Y-100348016D01*
X151548918Y-100348016D02*
X151501299Y-100490873D01*
X151501299Y-100490873D02*
X150929871Y-101062302D01*
X150929871Y-101062302D02*
X151548918Y-101062302D01*
X146224214Y-141874149D02*
X145748023Y-142207482D01*
X146224214Y-142445577D02*
X145224214Y-142445577D01*
X145224214Y-142445577D02*
X145224214Y-142064625D01*
X145224214Y-142064625D02*
X145271833Y-141969387D01*
X145271833Y-141969387D02*
X145319452Y-141921768D01*
X145319452Y-141921768D02*
X145414690Y-141874149D01*
X145414690Y-141874149D02*
X145557547Y-141874149D01*
X145557547Y-141874149D02*
X145652785Y-141921768D01*
X145652785Y-141921768D02*
X145700404Y-141969387D01*
X145700404Y-141969387D02*
X145748023Y-142064625D01*
X145748023Y-142064625D02*
X145748023Y-142445577D01*
X145319452Y-141493196D02*
X145271833Y-141445577D01*
X145271833Y-141445577D02*
X145224214Y-141350339D01*
X145224214Y-141350339D02*
X145224214Y-141112244D01*
X145224214Y-141112244D02*
X145271833Y-141017006D01*
X145271833Y-141017006D02*
X145319452Y-140969387D01*
X145319452Y-140969387D02*
X145414690Y-140921768D01*
X145414690Y-140921768D02*
X145509928Y-140921768D01*
X145509928Y-140921768D02*
X145652785Y-140969387D01*
X145652785Y-140969387D02*
X146224214Y-141540815D01*
X146224214Y-141540815D02*
X146224214Y-140921768D01*
X141098975Y-99836649D02*
X141146595Y-99884268D01*
X141146595Y-99884268D02*
X141194214Y-100027125D01*
X141194214Y-100027125D02*
X141194214Y-100122363D01*
X141194214Y-100122363D02*
X141146595Y-100265220D01*
X141146595Y-100265220D02*
X141051356Y-100360458D01*
X141051356Y-100360458D02*
X140956118Y-100408077D01*
X140956118Y-100408077D02*
X140765642Y-100455696D01*
X140765642Y-100455696D02*
X140622785Y-100455696D01*
X140622785Y-100455696D02*
X140432309Y-100408077D01*
X140432309Y-100408077D02*
X140337071Y-100360458D01*
X140337071Y-100360458D02*
X140241833Y-100265220D01*
X140241833Y-100265220D02*
X140194214Y-100122363D01*
X140194214Y-100122363D02*
X140194214Y-100027125D01*
X140194214Y-100027125D02*
X140241833Y-99884268D01*
X140241833Y-99884268D02*
X140289452Y-99836649D01*
X140622785Y-99265220D02*
X140575166Y-99360458D01*
X140575166Y-99360458D02*
X140527547Y-99408077D01*
X140527547Y-99408077D02*
X140432309Y-99455696D01*
X140432309Y-99455696D02*
X140384690Y-99455696D01*
X140384690Y-99455696D02*
X140289452Y-99408077D01*
X140289452Y-99408077D02*
X140241833Y-99360458D01*
X140241833Y-99360458D02*
X140194214Y-99265220D01*
X140194214Y-99265220D02*
X140194214Y-99074744D01*
X140194214Y-99074744D02*
X140241833Y-98979506D01*
X140241833Y-98979506D02*
X140289452Y-98931887D01*
X140289452Y-98931887D02*
X140384690Y-98884268D01*
X140384690Y-98884268D02*
X140432309Y-98884268D01*
X140432309Y-98884268D02*
X140527547Y-98931887D01*
X140527547Y-98931887D02*
X140575166Y-98979506D01*
X140575166Y-98979506D02*
X140622785Y-99074744D01*
X140622785Y-99074744D02*
X140622785Y-99265220D01*
X140622785Y-99265220D02*
X140670404Y-99360458D01*
X140670404Y-99360458D02*
X140718023Y-99408077D01*
X140718023Y-99408077D02*
X140813261Y-99455696D01*
X140813261Y-99455696D02*
X141003737Y-99455696D01*
X141003737Y-99455696D02*
X141098975Y-99408077D01*
X141098975Y-99408077D02*
X141146595Y-99360458D01*
X141146595Y-99360458D02*
X141194214Y-99265220D01*
X141194214Y-99265220D02*
X141194214Y-99074744D01*
X141194214Y-99074744D02*
X141146595Y-98979506D01*
X141146595Y-98979506D02*
X141098975Y-98931887D01*
X141098975Y-98931887D02*
X141003737Y-98884268D01*
X141003737Y-98884268D02*
X140813261Y-98884268D01*
X140813261Y-98884268D02*
X140718023Y-98931887D01*
X140718023Y-98931887D02*
X140670404Y-98979506D01*
X140670404Y-98979506D02*
X140622785Y-99074744D01*
X142868975Y-104874149D02*
X142916595Y-104921768D01*
X142916595Y-104921768D02*
X142964214Y-105064625D01*
X142964214Y-105064625D02*
X142964214Y-105159863D01*
X142964214Y-105159863D02*
X142916595Y-105302720D01*
X142916595Y-105302720D02*
X142821356Y-105397958D01*
X142821356Y-105397958D02*
X142726118Y-105445577D01*
X142726118Y-105445577D02*
X142535642Y-105493196D01*
X142535642Y-105493196D02*
X142392785Y-105493196D01*
X142392785Y-105493196D02*
X142202309Y-105445577D01*
X142202309Y-105445577D02*
X142107071Y-105397958D01*
X142107071Y-105397958D02*
X142011833Y-105302720D01*
X142011833Y-105302720D02*
X141964214Y-105159863D01*
X141964214Y-105159863D02*
X141964214Y-105064625D01*
X141964214Y-105064625D02*
X142011833Y-104921768D01*
X142011833Y-104921768D02*
X142059452Y-104874149D01*
X142964214Y-104397958D02*
X142964214Y-104207482D01*
X142964214Y-104207482D02*
X142916595Y-104112244D01*
X142916595Y-104112244D02*
X142868975Y-104064625D01*
X142868975Y-104064625D02*
X142726118Y-103969387D01*
X142726118Y-103969387D02*
X142535642Y-103921768D01*
X142535642Y-103921768D02*
X142154690Y-103921768D01*
X142154690Y-103921768D02*
X142059452Y-103969387D01*
X142059452Y-103969387D02*
X142011833Y-104017006D01*
X142011833Y-104017006D02*
X141964214Y-104112244D01*
X141964214Y-104112244D02*
X141964214Y-104302720D01*
X141964214Y-104302720D02*
X142011833Y-104397958D01*
X142011833Y-104397958D02*
X142059452Y-104445577D01*
X142059452Y-104445577D02*
X142154690Y-104493196D01*
X142154690Y-104493196D02*
X142392785Y-104493196D01*
X142392785Y-104493196D02*
X142488023Y-104445577D01*
X142488023Y-104445577D02*
X142535642Y-104397958D01*
X142535642Y-104397958D02*
X142583261Y-104302720D01*
X142583261Y-104302720D02*
X142583261Y-104112244D01*
X142583261Y-104112244D02*
X142535642Y-104017006D01*
X142535642Y-104017006D02*
X142488023Y-103969387D01*
X142488023Y-103969387D02*
X142392785Y-103921768D01*
X150324214Y-139074149D02*
X149848023Y-139407482D01*
X150324214Y-139645577D02*
X149324214Y-139645577D01*
X149324214Y-139645577D02*
X149324214Y-139264625D01*
X149324214Y-139264625D02*
X149371833Y-139169387D01*
X149371833Y-139169387D02*
X149419452Y-139121768D01*
X149419452Y-139121768D02*
X149514690Y-139074149D01*
X149514690Y-139074149D02*
X149657547Y-139074149D01*
X149657547Y-139074149D02*
X149752785Y-139121768D01*
X149752785Y-139121768D02*
X149800404Y-139169387D01*
X149800404Y-139169387D02*
X149848023Y-139264625D01*
X149848023Y-139264625D02*
X149848023Y-139645577D01*
X149324214Y-138217006D02*
X149324214Y-138407482D01*
X149324214Y-138407482D02*
X149371833Y-138502720D01*
X149371833Y-138502720D02*
X149419452Y-138550339D01*
X149419452Y-138550339D02*
X149562309Y-138645577D01*
X149562309Y-138645577D02*
X149752785Y-138693196D01*
X149752785Y-138693196D02*
X150133737Y-138693196D01*
X150133737Y-138693196D02*
X150228975Y-138645577D01*
X150228975Y-138645577D02*
X150276595Y-138597958D01*
X150276595Y-138597958D02*
X150324214Y-138502720D01*
X150324214Y-138502720D02*
X150324214Y-138312244D01*
X150324214Y-138312244D02*
X150276595Y-138217006D01*
X150276595Y-138217006D02*
X150228975Y-138169387D01*
X150228975Y-138169387D02*
X150133737Y-138121768D01*
X150133737Y-138121768D02*
X149895642Y-138121768D01*
X149895642Y-138121768D02*
X149800404Y-138169387D01*
X149800404Y-138169387D02*
X149752785Y-138217006D01*
X149752785Y-138217006D02*
X149705166Y-138312244D01*
X149705166Y-138312244D02*
X149705166Y-138502720D01*
X149705166Y-138502720D02*
X149752785Y-138597958D01*
X149752785Y-138597958D02*
X149800404Y-138645577D01*
X149800404Y-138645577D02*
X149895642Y-138693196D01*
X147887490Y-155212302D02*
X147887490Y-154212302D01*
X147887490Y-154688492D02*
X148458918Y-154688492D01*
X148458918Y-155212302D02*
X148458918Y-154212302D01*
X149363680Y-154545635D02*
X149363680Y-155212302D01*
X149125585Y-154164683D02*
X148887490Y-154878968D01*
X148887490Y-154878968D02*
X149506537Y-154878968D01*
X151772728Y-70467063D02*
X151725109Y-70514683D01*
X151725109Y-70514683D02*
X151582252Y-70562302D01*
X151582252Y-70562302D02*
X151487014Y-70562302D01*
X151487014Y-70562302D02*
X151344157Y-70514683D01*
X151344157Y-70514683D02*
X151248919Y-70419444D01*
X151248919Y-70419444D02*
X151201300Y-70324206D01*
X151201300Y-70324206D02*
X151153681Y-70133730D01*
X151153681Y-70133730D02*
X151153681Y-69990873D01*
X151153681Y-69990873D02*
X151201300Y-69800397D01*
X151201300Y-69800397D02*
X151248919Y-69705159D01*
X151248919Y-69705159D02*
X151344157Y-69609921D01*
X151344157Y-69609921D02*
X151487014Y-69562302D01*
X151487014Y-69562302D02*
X151582252Y-69562302D01*
X151582252Y-69562302D02*
X151725109Y-69609921D01*
X151725109Y-69609921D02*
X151772728Y-69657540D01*
X152629871Y-69895635D02*
X152629871Y-70562302D01*
X152391776Y-69514683D02*
X152153681Y-70228968D01*
X152153681Y-70228968D02*
X152772728Y-70228968D01*
X133333561Y-47762302D02*
X133333561Y-48476587D01*
X133333561Y-48476587D02*
X133285942Y-48619444D01*
X133285942Y-48619444D02*
X133190704Y-48714683D01*
X133190704Y-48714683D02*
X133047847Y-48762302D01*
X133047847Y-48762302D02*
X132952609Y-48762302D01*
X133714514Y-47762302D02*
X134333561Y-47762302D01*
X134333561Y-47762302D02*
X134000228Y-48143254D01*
X134000228Y-48143254D02*
X134143085Y-48143254D01*
X134143085Y-48143254D02*
X134238323Y-48190873D01*
X134238323Y-48190873D02*
X134285942Y-48238492D01*
X134285942Y-48238492D02*
X134333561Y-48333730D01*
X134333561Y-48333730D02*
X134333561Y-48571825D01*
X134333561Y-48571825D02*
X134285942Y-48667063D01*
X134285942Y-48667063D02*
X134238323Y-48714683D01*
X134238323Y-48714683D02*
X134143085Y-48762302D01*
X134143085Y-48762302D02*
X133857371Y-48762302D01*
X133857371Y-48762302D02*
X133762133Y-48714683D01*
X133762133Y-48714683D02*
X133714514Y-48667063D01*
X146094214Y-109369387D02*
X146903737Y-109369387D01*
X146903737Y-109369387D02*
X146998975Y-109321768D01*
X146998975Y-109321768D02*
X147046595Y-109274149D01*
X147046595Y-109274149D02*
X147094214Y-109178911D01*
X147094214Y-109178911D02*
X147094214Y-108988435D01*
X147094214Y-108988435D02*
X147046595Y-108893197D01*
X147046595Y-108893197D02*
X146998975Y-108845578D01*
X146998975Y-108845578D02*
X146903737Y-108797959D01*
X146903737Y-108797959D02*
X146094214Y-108797959D01*
X147094214Y-107797959D02*
X147094214Y-108369387D01*
X147094214Y-108083673D02*
X146094214Y-108083673D01*
X146094214Y-108083673D02*
X146237071Y-108178911D01*
X146237071Y-108178911D02*
X146332309Y-108274149D01*
X146332309Y-108274149D02*
X146379928Y-108369387D01*
X147887490Y-39312302D02*
X147887490Y-38312302D01*
X147887490Y-38788492D02*
X148458918Y-38788492D01*
X148458918Y-39312302D02*
X148458918Y-38312302D01*
X148839871Y-38312302D02*
X149458918Y-38312302D01*
X149458918Y-38312302D02*
X149125585Y-38693254D01*
X149125585Y-38693254D02*
X149268442Y-38693254D01*
X149268442Y-38693254D02*
X149363680Y-38740873D01*
X149363680Y-38740873D02*
X149411299Y-38788492D01*
X149411299Y-38788492D02*
X149458918Y-38883730D01*
X149458918Y-38883730D02*
X149458918Y-39121825D01*
X149458918Y-39121825D02*
X149411299Y-39217063D01*
X149411299Y-39217063D02*
X149363680Y-39264683D01*
X149363680Y-39264683D02*
X149268442Y-39312302D01*
X149268442Y-39312302D02*
X148982728Y-39312302D01*
X148982728Y-39312302D02*
X148887490Y-39264683D01*
X148887490Y-39264683D02*
X148839871Y-39217063D01*
X141994214Y-143074149D02*
X141518023Y-143407482D01*
X141994214Y-143645577D02*
X140994214Y-143645577D01*
X140994214Y-143645577D02*
X140994214Y-143264625D01*
X140994214Y-143264625D02*
X141041833Y-143169387D01*
X141041833Y-143169387D02*
X141089452Y-143121768D01*
X141089452Y-143121768D02*
X141184690Y-143074149D01*
X141184690Y-143074149D02*
X141327547Y-143074149D01*
X141327547Y-143074149D02*
X141422785Y-143121768D01*
X141422785Y-143121768D02*
X141470404Y-143169387D01*
X141470404Y-143169387D02*
X141518023Y-143264625D01*
X141518023Y-143264625D02*
X141518023Y-143645577D01*
X141994214Y-142121768D02*
X141994214Y-142693196D01*
X141994214Y-142407482D02*
X140994214Y-142407482D01*
X140994214Y-142407482D02*
X141137071Y-142502720D01*
X141137071Y-142502720D02*
X141232309Y-142597958D01*
X141232309Y-142597958D02*
X141279928Y-142693196D01*
X150233333Y-135454819D02*
X149900000Y-134978628D01*
X149661905Y-135454819D02*
X149661905Y-134454819D01*
X149661905Y-134454819D02*
X150042857Y-134454819D01*
X150042857Y-134454819D02*
X150138095Y-134502438D01*
X150138095Y-134502438D02*
X150185714Y-134550057D01*
X150185714Y-134550057D02*
X150233333Y-134645295D01*
X150233333Y-134645295D02*
X150233333Y-134788152D01*
X150233333Y-134788152D02*
X150185714Y-134883390D01*
X150185714Y-134883390D02*
X150138095Y-134931009D01*
X150138095Y-134931009D02*
X150042857Y-134978628D01*
X150042857Y-134978628D02*
X149661905Y-134978628D01*
X150566667Y-134454819D02*
X151185714Y-134454819D01*
X151185714Y-134454819D02*
X150852381Y-134835771D01*
X150852381Y-134835771D02*
X150995238Y-134835771D01*
X150995238Y-134835771D02*
X151090476Y-134883390D01*
X151090476Y-134883390D02*
X151138095Y-134931009D01*
X151138095Y-134931009D02*
X151185714Y-135026247D01*
X151185714Y-135026247D02*
X151185714Y-135264342D01*
X151185714Y-135264342D02*
X151138095Y-135359580D01*
X151138095Y-135359580D02*
X151090476Y-135407200D01*
X151090476Y-135407200D02*
X150995238Y-135454819D01*
X150995238Y-135454819D02*
X150709524Y-135454819D01*
X150709524Y-135454819D02*
X150614286Y-135407200D01*
X150614286Y-135407200D02*
X150566667Y-135359580D01*
X132647490Y-155212302D02*
X132647490Y-154212302D01*
X132647490Y-154688492D02*
X133218918Y-154688492D01*
X133218918Y-155212302D02*
X133218918Y-154212302D01*
X133647490Y-154307540D02*
X133695109Y-154259921D01*
X133695109Y-154259921D02*
X133790347Y-154212302D01*
X133790347Y-154212302D02*
X134028442Y-154212302D01*
X134028442Y-154212302D02*
X134123680Y-154259921D01*
X134123680Y-154259921D02*
X134171299Y-154307540D01*
X134171299Y-154307540D02*
X134218918Y-154402778D01*
X134218918Y-154402778D02*
X134218918Y-154498016D01*
X134218918Y-154498016D02*
X134171299Y-154640873D01*
X134171299Y-154640873D02*
X133599871Y-155212302D01*
X133599871Y-155212302D02*
X134218918Y-155212302D01*
X132647490Y-39312302D02*
X132647490Y-38312302D01*
X132647490Y-38788492D02*
X133218918Y-38788492D01*
X133218918Y-39312302D02*
X133218918Y-38312302D01*
X134218918Y-39312302D02*
X133647490Y-39312302D01*
X133933204Y-39312302D02*
X133933204Y-38312302D01*
X133933204Y-38312302D02*
X133837966Y-38455159D01*
X133837966Y-38455159D02*
X133742728Y-38550397D01*
X133742728Y-38550397D02*
X133647490Y-38598016D01*
X139872728Y-145962302D02*
X139539395Y-145486111D01*
X139301300Y-145962302D02*
X139301300Y-144962302D01*
X139301300Y-144962302D02*
X139682252Y-144962302D01*
X139682252Y-144962302D02*
X139777490Y-145009921D01*
X139777490Y-145009921D02*
X139825109Y-145057540D01*
X139825109Y-145057540D02*
X139872728Y-145152778D01*
X139872728Y-145152778D02*
X139872728Y-145295635D01*
X139872728Y-145295635D02*
X139825109Y-145390873D01*
X139825109Y-145390873D02*
X139777490Y-145438492D01*
X139777490Y-145438492D02*
X139682252Y-145486111D01*
X139682252Y-145486111D02*
X139301300Y-145486111D01*
X140777490Y-144962302D02*
X140301300Y-144962302D01*
X140301300Y-144962302D02*
X140253681Y-145438492D01*
X140253681Y-145438492D02*
X140301300Y-145390873D01*
X140301300Y-145390873D02*
X140396538Y-145343254D01*
X140396538Y-145343254D02*
X140634633Y-145343254D01*
X140634633Y-145343254D02*
X140729871Y-145390873D01*
X140729871Y-145390873D02*
X140777490Y-145438492D01*
X140777490Y-145438492D02*
X140825109Y-145533730D01*
X140825109Y-145533730D02*
X140825109Y-145771825D01*
X140825109Y-145771825D02*
X140777490Y-145867063D01*
X140777490Y-145867063D02*
X140729871Y-145914683D01*
X140729871Y-145914683D02*
X140634633Y-145962302D01*
X140634633Y-145962302D02*
X140396538Y-145962302D01*
X140396538Y-145962302D02*
X140301300Y-145914683D01*
X140301300Y-145914683D02*
X140253681Y-145867063D01*
X146772728Y-144417063D02*
X146725109Y-144464683D01*
X146725109Y-144464683D02*
X146582252Y-144512302D01*
X146582252Y-144512302D02*
X146487014Y-144512302D01*
X146487014Y-144512302D02*
X146344157Y-144464683D01*
X146344157Y-144464683D02*
X146248919Y-144369444D01*
X146248919Y-144369444D02*
X146201300Y-144274206D01*
X146201300Y-144274206D02*
X146153681Y-144083730D01*
X146153681Y-144083730D02*
X146153681Y-143940873D01*
X146153681Y-143940873D02*
X146201300Y-143750397D01*
X146201300Y-143750397D02*
X146248919Y-143655159D01*
X146248919Y-143655159D02*
X146344157Y-143559921D01*
X146344157Y-143559921D02*
X146487014Y-143512302D01*
X146487014Y-143512302D02*
X146582252Y-143512302D01*
X146582252Y-143512302D02*
X146725109Y-143559921D01*
X146725109Y-143559921D02*
X146772728Y-143607540D01*
X147725109Y-144512302D02*
X147153681Y-144512302D01*
X147439395Y-144512302D02*
X147439395Y-143512302D01*
X147439395Y-143512302D02*
X147344157Y-143655159D01*
X147344157Y-143655159D02*
X147248919Y-143750397D01*
X147248919Y-143750397D02*
X147153681Y-143798016D01*
X147824214Y-105174149D02*
X147348023Y-105507482D01*
X147824214Y-105745577D02*
X146824214Y-105745577D01*
X146824214Y-105745577D02*
X146824214Y-105364625D01*
X146824214Y-105364625D02*
X146871833Y-105269387D01*
X146871833Y-105269387D02*
X146919452Y-105221768D01*
X146919452Y-105221768D02*
X147014690Y-105174149D01*
X147014690Y-105174149D02*
X147157547Y-105174149D01*
X147157547Y-105174149D02*
X147252785Y-105221768D01*
X147252785Y-105221768D02*
X147300404Y-105269387D01*
X147300404Y-105269387D02*
X147348023Y-105364625D01*
X147348023Y-105364625D02*
X147348023Y-105745577D01*
X146824214Y-104840815D02*
X146824214Y-104174149D01*
X146824214Y-104174149D02*
X147824214Y-104602720D01*
X152394214Y-105174149D02*
X151918023Y-105507482D01*
X152394214Y-105745577D02*
X151394214Y-105745577D01*
X151394214Y-105745577D02*
X151394214Y-105364625D01*
X151394214Y-105364625D02*
X151441833Y-105269387D01*
X151441833Y-105269387D02*
X151489452Y-105221768D01*
X151489452Y-105221768D02*
X151584690Y-105174149D01*
X151584690Y-105174149D02*
X151727547Y-105174149D01*
X151727547Y-105174149D02*
X151822785Y-105221768D01*
X151822785Y-105221768D02*
X151870404Y-105269387D01*
X151870404Y-105269387D02*
X151918023Y-105364625D01*
X151918023Y-105364625D02*
X151918023Y-105745577D01*
X151822785Y-104602720D02*
X151775166Y-104697958D01*
X151775166Y-104697958D02*
X151727547Y-104745577D01*
X151727547Y-104745577D02*
X151632309Y-104793196D01*
X151632309Y-104793196D02*
X151584690Y-104793196D01*
X151584690Y-104793196D02*
X151489452Y-104745577D01*
X151489452Y-104745577D02*
X151441833Y-104697958D01*
X151441833Y-104697958D02*
X151394214Y-104602720D01*
X151394214Y-104602720D02*
X151394214Y-104412244D01*
X151394214Y-104412244D02*
X151441833Y-104317006D01*
X151441833Y-104317006D02*
X151489452Y-104269387D01*
X151489452Y-104269387D02*
X151584690Y-104221768D01*
X151584690Y-104221768D02*
X151632309Y-104221768D01*
X151632309Y-104221768D02*
X151727547Y-104269387D01*
X151727547Y-104269387D02*
X151775166Y-104317006D01*
X151775166Y-104317006D02*
X151822785Y-104412244D01*
X151822785Y-104412244D02*
X151822785Y-104602720D01*
X151822785Y-104602720D02*
X151870404Y-104697958D01*
X151870404Y-104697958D02*
X151918023Y-104745577D01*
X151918023Y-104745577D02*
X152013261Y-104793196D01*
X152013261Y-104793196D02*
X152203737Y-104793196D01*
X152203737Y-104793196D02*
X152298975Y-104745577D01*
X152298975Y-104745577D02*
X152346595Y-104697958D01*
X152346595Y-104697958D02*
X152394214Y-104602720D01*
X152394214Y-104602720D02*
X152394214Y-104412244D01*
X152394214Y-104412244D02*
X152346595Y-104317006D01*
X152346595Y-104317006D02*
X152298975Y-104269387D01*
X152298975Y-104269387D02*
X152203737Y-104221768D01*
X152203737Y-104221768D02*
X152013261Y-104221768D01*
X152013261Y-104221768D02*
X151918023Y-104269387D01*
X151918023Y-104269387D02*
X151870404Y-104317006D01*
X151870404Y-104317006D02*
X151822785Y-104412244D01*
X150233333Y-136954819D02*
X149900000Y-136478628D01*
X149661905Y-136954819D02*
X149661905Y-135954819D01*
X149661905Y-135954819D02*
X150042857Y-135954819D01*
X150042857Y-135954819D02*
X150138095Y-136002438D01*
X150138095Y-136002438D02*
X150185714Y-136050057D01*
X150185714Y-136050057D02*
X150233333Y-136145295D01*
X150233333Y-136145295D02*
X150233333Y-136288152D01*
X150233333Y-136288152D02*
X150185714Y-136383390D01*
X150185714Y-136383390D02*
X150138095Y-136431009D01*
X150138095Y-136431009D02*
X150042857Y-136478628D01*
X150042857Y-136478628D02*
X149661905Y-136478628D01*
X151090476Y-136288152D02*
X151090476Y-136954819D01*
X150852381Y-135907200D02*
X150614286Y-136621485D01*
X150614286Y-136621485D02*
X151233333Y-136621485D01*
D12*
%TO.C,U2*%
X146439395Y-99997483D02*
X144939395Y-99997483D01*
X146439395Y-99997483D02*
X147939395Y-99997483D01*
X146439395Y-103217483D02*
X144939395Y-103217483D01*
X146439395Y-103217483D02*
X147939395Y-103217483D01*
X148891895Y-103372483D02*
X148411895Y-103372483D01*
X148651895Y-103042483D01*
X148891895Y-103372483D01*
G36*
X148891895Y-103372483D02*
G01*
X148411895Y-103372483D01*
X148651895Y-103042483D01*
X148891895Y-103372483D01*
G37*
%TO.C,R2*%
X143816895Y-141452759D02*
X143816895Y-141962207D01*
X144861895Y-141452759D02*
X144861895Y-141962207D01*
%TO.C,C8*%
X141629395Y-99523716D02*
X141629395Y-99816250D01*
X142649395Y-99523716D02*
X142649395Y-99816250D01*
%TO.C,C9*%
X143429395Y-104853750D02*
X143429395Y-104561216D01*
X144449395Y-104853750D02*
X144449395Y-104561216D01*
%TO.C,R6*%
X147916895Y-138652759D02*
X147916895Y-139162207D01*
X148961895Y-138652759D02*
X148961895Y-139162207D01*
%TO.C,C4*%
X151228143Y-67097483D02*
X152650647Y-67097483D01*
X151228143Y-68917483D02*
X152650647Y-68917483D01*
%TO.C,J3*%
X127386895Y-57137483D02*
X127386895Y-57737483D01*
X127386895Y-57737483D02*
X128066895Y-57437483D01*
X128066895Y-57437483D02*
X127386895Y-57137483D01*
X128256895Y-49197483D02*
X139076895Y-49197483D01*
X128256895Y-144417483D02*
X128256895Y-49197483D01*
X129416895Y-54307483D02*
X134916895Y-54307483D01*
X129416895Y-139307483D02*
X129416895Y-54307483D01*
X134916895Y-54307483D02*
X134916895Y-55307483D01*
X134916895Y-55307483D02*
X137916895Y-55307483D01*
X134916895Y-138307483D02*
X134916895Y-139307483D01*
X134916895Y-139307483D02*
X129416895Y-139307483D01*
X137916895Y-55307483D02*
X137916895Y-138307483D01*
X137916895Y-138307483D02*
X134916895Y-138307483D01*
X139076895Y-49197483D02*
X139076895Y-144417483D01*
X139076895Y-144417483D02*
X128256895Y-144417483D01*
%TO.C,U1*%
X147929395Y-108507483D02*
X147929395Y-107707483D01*
X147929395Y-108507483D02*
X147929395Y-109307483D01*
X151149395Y-109507483D02*
X151149395Y-107707483D01*
X147979395Y-109807483D02*
X147649395Y-110047483D01*
X147649395Y-109567483D01*
X147979395Y-109807483D01*
G36*
X147979395Y-109807483D02*
G01*
X147649395Y-110047483D01*
X147649395Y-109567483D01*
X147979395Y-109807483D01*
G37*
%TO.C,R1*%
X142316895Y-142352759D02*
X142316895Y-142862207D01*
X143361895Y-142352759D02*
X143361895Y-142862207D01*
%TO.C,R3*%
X147584671Y-134484983D02*
X148094119Y-134484983D01*
X147584671Y-135529983D02*
X148094119Y-135529983D01*
%TO.C,R5*%
X142484671Y-144984983D02*
X142994119Y-144984983D01*
X142484671Y-146029983D02*
X142994119Y-146029983D01*
%TO.C,C1*%
X146228143Y-144997483D02*
X147650647Y-144997483D01*
X146228143Y-146817483D02*
X147650647Y-146817483D01*
%TO.C,R7*%
X148159395Y-105175104D02*
X148159395Y-104839862D01*
X148919395Y-105175104D02*
X148919395Y-104839862D01*
%TO.C,R8*%
X150159395Y-105175104D02*
X150159395Y-104839862D01*
X150919395Y-105175104D02*
X150919395Y-104839862D01*
%TO.C,R4*%
X147584671Y-135984983D02*
X148094119Y-135984983D01*
X147584671Y-137029983D02*
X148094119Y-137029983D01*
%TD*%
%LPC*%
D13*
%TO.C,U2*%
X148551895Y-102607483D03*
X148551895Y-102107483D03*
X148551895Y-101607483D03*
X148551895Y-101107483D03*
X148551895Y-100607483D03*
X144326895Y-100607483D03*
X144326895Y-101107483D03*
X144326895Y-101607483D03*
X144326895Y-102107483D03*
X144326895Y-102607483D03*
%TD*%
D14*
%TO.C,R2*%
X144339395Y-140794983D03*
X144339395Y-142619983D03*
%TD*%
D15*
%TO.C,C8*%
X142139395Y-98807483D03*
X142139395Y-100532483D03*
%TD*%
D16*
%TO.C,C9*%
X143939395Y-105569983D03*
X143939395Y-103844983D03*
%TD*%
D14*
%TO.C,R6*%
X148439395Y-137994983D03*
X148439395Y-139819983D03*
%TD*%
D17*
%TO.C,H4*%
X148649395Y-158057483D03*
%TD*%
D18*
%TO.C,C4*%
X150376895Y-68007483D03*
X153501895Y-68007483D03*
%TD*%
D19*
%TO.C,J3*%
X133366895Y-51807483D03*
X133366895Y-141807483D03*
D20*
X131126895Y-57437483D03*
D21*
X131126895Y-59977483D03*
X131126895Y-62517483D03*
X131126895Y-65057483D03*
X131126895Y-67597483D03*
X131126895Y-70137483D03*
X131126895Y-72677483D03*
X131126895Y-75217483D03*
X131126895Y-77757483D03*
X131126895Y-80297483D03*
X131126895Y-82837483D03*
X131126895Y-85377483D03*
X131126895Y-87917483D03*
X131126895Y-90457483D03*
X131126895Y-92997483D03*
X131126895Y-95537483D03*
X131126895Y-98077483D03*
X131126895Y-100617483D03*
X131126895Y-103157483D03*
X131126895Y-105697483D03*
X131126895Y-108237483D03*
X131126895Y-110777483D03*
X131126895Y-113317483D03*
X131126895Y-115857483D03*
X131126895Y-118397483D03*
X131126895Y-120937483D03*
X131126895Y-123477483D03*
X131126895Y-126017483D03*
X131126895Y-128557483D03*
X131126895Y-131097483D03*
X131126895Y-133637483D03*
X131126895Y-136177483D03*
X136206895Y-57437483D03*
X136206895Y-59977483D03*
X136206895Y-62517483D03*
X136206895Y-65057483D03*
X136206895Y-67597483D03*
X136206895Y-70137483D03*
X136206895Y-72677483D03*
X136206895Y-75217483D03*
X136206895Y-77757483D03*
X136206895Y-80297483D03*
X136206895Y-82837483D03*
X136206895Y-85377483D03*
X136206895Y-87917483D03*
X136206895Y-90457483D03*
X136206895Y-92997483D03*
X136206895Y-95537483D03*
X136206895Y-98077483D03*
X136206895Y-100617483D03*
X136206895Y-103157483D03*
X136206895Y-105697483D03*
X136206895Y-108237483D03*
X136206895Y-110777483D03*
X136206895Y-113317483D03*
X136206895Y-115857483D03*
X136206895Y-118397483D03*
X136206895Y-120937483D03*
X136206895Y-123477483D03*
X136206895Y-126017483D03*
X136206895Y-128557483D03*
X136206895Y-131097483D03*
X136206895Y-133637483D03*
X136206895Y-136177483D03*
%TD*%
D22*
%TO.C,U1*%
X148589395Y-109957483D03*
X149539395Y-109957483D03*
X150489395Y-109957483D03*
X150489395Y-107257483D03*
X149539395Y-107257483D03*
X148589395Y-107257483D03*
%TD*%
D17*
%TO.C,H3*%
X148649395Y-35557483D03*
%TD*%
D14*
%TO.C,R1*%
X142839395Y-141694983D03*
X142839395Y-143519983D03*
%TD*%
D23*
%TO.C,R3*%
X146926895Y-135007483D03*
X148751895Y-135007483D03*
%TD*%
D17*
%TO.C,H2*%
X133409395Y-158057483D03*
%TD*%
%TO.C,H1*%
X133409395Y-35557483D03*
%TD*%
D23*
%TO.C,R5*%
X141826895Y-145507483D03*
X143651895Y-145507483D03*
%TD*%
D18*
%TO.C,C1*%
X145376895Y-145907483D03*
X148501895Y-145907483D03*
%TD*%
D24*
%TO.C,R7*%
X148539395Y-105604983D03*
X148539395Y-104409983D03*
%TD*%
%TO.C,R8*%
X150539395Y-105604983D03*
X150539395Y-104409983D03*
%TD*%
D23*
%TO.C,R4*%
X146926895Y-136507483D03*
X148751895Y-136507483D03*
%TD*%
D25*
%TO.C,J6*%
X152124395Y-122257483D03*
D26*
X152124395Y-114257483D03*
D27*
X153554395Y-122257483D03*
X153554395Y-114257483D03*
X150694395Y-122257483D03*
X150694395Y-114257483D03*
%TD*%
D28*
%TO.C,J2*%
X144989395Y-52107483D03*
D29*
X144989395Y-56307483D03*
X144989395Y-60507483D03*
X144989395Y-64707483D03*
X150489395Y-52107483D03*
X150489395Y-56307483D03*
X150489395Y-60507483D03*
X150489395Y-64707483D03*
%TD*%
D30*
%TO.C,J1*%
X151539395Y-141322483D03*
X151539395Y-129892483D03*
D31*
X145179395Y-131162483D03*
D32*
X142639395Y-132432483D03*
X145179395Y-133702483D03*
X142639395Y-134972483D03*
X145179395Y-136242483D03*
X142639395Y-137512483D03*
X145179395Y-138782483D03*
X142639395Y-140052483D03*
D33*
X148589395Y-127732483D03*
X148589395Y-143482483D03*
%TD*%
D34*
%TO.C,J7*%
X151949395Y-81007483D03*
D35*
X148139395Y-81007483D03*
X144329395Y-81007483D03*
%TD*%
D25*
%TO.C,J4*%
X143354395Y-122257483D03*
D26*
X143354395Y-114257483D03*
D27*
X144784395Y-122257483D03*
X144784395Y-114257483D03*
X141924395Y-122257483D03*
X141924395Y-114257483D03*
%TD*%
%LPD*%
M02*
